<svg width="736" height="534" viewBox="0 0 736 534" fill="none" xmlns="http://www.w3.org/2000/svg">
<g clip-path="url(#clip0)" filter="url(#filter0_d)">
<path d="M339 115L324.5 383L210.5 433L339 115Z" fill="#EB5757" fill-opacity="0.5"/>
<path d="M340.5 112.5L575.5 434.5L324.5 386L340.5 112.5Z" fill="#EB5757" fill-opacity="0.5"/>
<line x1="574.609" y1="436.961" x2="323.609" y2="386.961" stroke="black" stroke-width="4"/>
<line x1="209.189" y1="433.172" x2="324.189" y2="382.172" stroke="black" stroke-width="4"/>
<line x1="341.997" y1="109.116" x2="325.997" y2="385.116" stroke="black" stroke-width="4"/>
<circle cx="316" cy="292" r="16" fill="#BDBDBD"/>
<line y1="-0.5" x2="352.746" y2="-0.5" transform="matrix(-0.373174 0.927762 -0.927627 -0.373507 340.33 107.735)" stroke="#56CCF2"/>
<line y1="-0.5" x2="402.539" y2="-0.5" transform="matrix(0.586198 0.810168 -0.809879 0.586597 340.33 108.736)" stroke="#56CCF2"/>
<circle cx="574.92" cy="434.92" r="9.92003" fill="#EB5757"/>
<circle cx="213.92" cy="430.92" r="9.92003" fill="#EB5757"/>
<circle cx="338.92" cy="108.92" r="9.92003" fill="#EB5757"/>
<circle cx="204" cy="243" r="190" stroke="#EB5757" stroke-width="2"/>
<circle cx="486.5" cy="250.5" r="204.5" stroke="#EB5757" stroke-width="2"/>
<circle cx="386.5" cy="692.5" r="314.5" stroke="#56CCF2" stroke-width="2"/>
<line x1="211" y1="430.5" x2="575" y2="430.5" stroke="#56CCF2"/>
<circle cx="325" cy="384" r="16" fill="#BDBDBD"/>
<circle cx="316" cy="292" r="15.5" fill="#F2F2F2" stroke="black" stroke-dasharray="2 4"/>
</g>
<defs>
<filter id="filter0_d" x="-4" y="0" width="744" height="534" filterUnits="userSpaceOnUse" color-interpolation-filters="sRGB">
<feFlood flood-opacity="0" result="BackgroundImageFix"/>
<feColorMatrix in="SourceAlpha" type="matrix" values="0 0 0 0 0 0 0 0 0 0 0 0 0 0 0 0 0 0 127 0"/>
<feOffset dy="4"/>
<feGaussianBlur stdDeviation="2"/>
<feColorMatrix type="matrix" values="0 0 0 0 0 0 0 0 0 0 0 0 0 0 0 0 0 0 0.25 0"/>
<feBlend mode="normal" in2="BackgroundImageFix" result="effect1_dropShadow"/>
<feBlend mode="normal" in="SourceGraphic" in2="effect1_dropShadow" result="shape"/>
</filter>
<clipPath id="clip0">
<rect width="736" height="526" fill="white"/>
</clipPath>
</defs>
</svg>
