<svg width="518" height="450" viewBox="0 0 518 450" fill="none" xmlns="http://www.w3.org/2000/svg">
<g filter="url(#filter0_d)">
<path d="M189.5 309.5L442.5 361C394.055 294.91 207 37 207 37C207 37 116.392 260.416 76.5 361L189.5 309.5Z" fill="#6FCF97" fill-opacity="0.3"/>
<line x1="441.902" y1="361.49" x2="190.902" y2="311.49" stroke="#EB5757"/>
<line x1="76.7973" y1="360.543" x2="191.797" y2="309.543" stroke="#EB5757"/>
<line x1="186.996" y1="218.868" x2="192.996" y2="309.868" stroke="#27AE60" stroke-width="4"/>
<line x1="186.988" y1="214.261" x2="443.988" y2="360.261" stroke="#27AE60" stroke-width="4"/>
<line x1="182.015" y1="218.752" x2="205.015" y2="34.7519" stroke="#27AE60" stroke-width="4"/>
<line x1="185.582" y1="221.223" x2="76.5823" y2="362.223" stroke="#27AE60" stroke-width="4"/>
<circle cx="183" cy="218" r="16" fill="#BDBDBD"/>
<circle cx="192" cy="310" r="16" fill="#BDBDBD"/>
<circle cx="180" cy="218" r="15.5" fill="#F2F2F2" stroke="black" stroke-dasharray="2 4"/>
<line x1="76" y1="361.5" x2="443" y2="361.5" stroke="#56CCF2"/>
<line x1="207.464" y1="34.1867" x2="75.8101" y2="361.326" stroke="#EB5757"/>
<line x1="207.405" y1="34.7068" x2="443.405" y2="360.707" stroke="#EB5757"/>
<circle cx="442" cy="361" r="16" fill="#EB5757"/>
<circle cx="75" cy="361" r="16" fill="#EB5757"/>
<circle cx="207" cy="35" r="16" fill="#EB5757"/>
</g>
<defs>
<filter id="filter0_d" x="-4" y="0" width="526" height="458" filterUnits="userSpaceOnUse" color-interpolation-filters="sRGB">
<feFlood flood-opacity="0" result="BackgroundImageFix"/>
<feColorMatrix in="SourceAlpha" type="matrix" values="0 0 0 0 0 0 0 0 0 0 0 0 0 0 0 0 0 0 127 0"/>
<feOffset dy="4"/>
<feGaussianBlur stdDeviation="2"/>
<feColorMatrix type="matrix" values="0 0 0 0 0 0 0 0 0 0 0 0 0 0 0 0 0 0 0.25 0"/>
<feBlend mode="normal" in2="BackgroundImageFix" result="effect1_dropShadow"/>
<feBlend mode="normal" in="SourceGraphic" in2="effect1_dropShadow" result="shape"/>
</filter>
</defs>
</svg>
