<svg viewBox="0 0 5491.199999999999 20275.2" xmlns="http://www.w3.org/2000/svg">
<style>
line { stroke: black; stroke-width: 2; }
.blocking { stroke-width: 7; }
.special { stroke-width: 4; stroke: blue; }
.vertex { fill: transparent }
.thing.Monster { fill: red; }
.thing.Artifact { fill: cyan; }
.thing.Pickup { fill: yellow; }
.thing.Obstacle { fill: grey; }
.details line { stroke-width: 2; stroke: red; }
.support_lines .sector { stroke-width: 4; stroke: cyan; fill: transparent; }
.sector { fill: white; stroke: black; stroke-width: 4; }
.frame { fill: #ccc; stroke: black; stroke-width: 4; }

</style>
<g transform="translate(0, 0)">
<rect class="frame" height="3379.2000000000003" width="5491.199999999999"/>
<g/>
<g class="details">
<line class="" x1="3273.6" x2="3401.6" y1="1241.6" y2="1241.6"/>
<line class="" x1="3465.6" x2="3465.6" y1="1049.6" y2="1177.6"/>
<line class="" x1="3593.6" x2="3593.6" y1="1177.6" y2="1049.6"/>
<line class="" x1="3857.6" x2="3913.6" y1="1353.6" y2="1225.6"/>
<line class="" x1="3273.6" x2="3401.6" y1="1273.6" y2="1273.6"/>
<line class="" x1="3913.6" x2="3945.6" y1="1369.6" y2="1241.6"/>
<line class="" x1="3977.6" x2="3977.6" y1="1369.6" y2="1241.6"/>
<line class="" x1="3273.6" x2="3401.6" y1="1305.6" y2="1305.6"/>
<line class="" x1="3273.6" x2="3401.6" y1="1337.6" y2="1337.6"/>
<line class="" x1="4009.6" x2="4009.6" y1="1369.6" y2="1241.6"/>
</g>
<g class="support_lines">
<path class="sector sector-13" d="M2745.6,1977.6 L2897.6,2041.6 L3121.6,2041.6 L3265.6,2001.6 L3353.6,1873.6 L3289.6,1737.6 L3009.6,1697.6 L2769.6,1761.6 L2745.6,1977.6 M3465.6,1049.6 L3337.6,1113.6 L3273.6,1225.6 L3273.6,1241.6 L3273.6,1273.6 L3273.6,1305.6 L3273.6,1337.6 L3273.6,1369.6 L3401.6,1369.6 L3401.6,1337.6 L3401.6,1305.6 L3401.6,1273.6 L3401.6,1241.6 L3401.6,1225.6 L3465.6,1177.6 L3489.6,1177.6 L3569.6,1177.6 L3593.6,1177.6 L3841.6,1353.6 L3857.6,1353.6 L3913.6,1369.6 L3977.6,1369.6 L4009.6,1369.6 L4041.6,1369.6 L4041.6,1241.6 L4009.6,1241.6 L3977.6,1241.6 L3945.6,1241.6 L3913.6,1225.6 L3897.6,1225.6 L3593.6,1049.6 L3569.6,1049.6 L3489.6,1049.6 L3465.6,1049.6" id="s-13"/>
</g>
</g>
<g transform="translate(0, 3379.2000000000003)">
<rect class="frame" height="3379.2000000000003" width="5491.199999999999"/>
<g>
<path class="sector sector-13" d="M2745.6,1977.6 L2897.6,2041.6 L3121.6,2041.6 L3265.6,2001.6 L3353.6,1873.6 L3289.6,1737.6 L3009.6,1697.6 L2769.6,1761.6 L2745.6,1977.6 M3465.6,1049.6 L3337.6,1113.6 L3273.6,1225.6 L3273.6,1241.6 L3273.6,1273.6 L3273.6,1305.6 L3273.6,1337.6 L3273.6,1369.6 L3401.6,1369.6 L3401.6,1337.6 L3401.6,1305.6 L3401.6,1273.6 L3401.6,1241.6 L3401.6,1225.6 L3465.6,1177.6 L3489.6,1177.6 L3569.6,1177.6 L3593.6,1177.6 L3841.6,1353.6 L3857.6,1353.6 L3913.6,1369.6 L3977.6,1369.6 L4009.6,1369.6 L4041.6,1369.6 L4041.6,1241.6 L4009.6,1241.6 L3977.6,1241.6 L3945.6,1241.6 L3913.6,1225.6 L3897.6,1225.6 L3593.6,1049.6 L3569.6,1049.6 L3489.6,1049.6 L3465.6,1049.6" id="s-13"/>
</g>
<g class="details">
<line class="" x1="2745.6" x2="2897.6" y1="1977.6" y2="2041.6"/>
<line class="" x1="2897.6" x2="3121.6" y1="2041.6" y2="2041.6"/>
<line class="" x1="3121.6" x2="3265.6" y1="2041.6" y2="2001.6"/>
<line class="" x1="3265.6" x2="3353.6" y1="2001.6" y2="1873.6"/>
<line class="" x1="3353.6" x2="3289.6" y1="1873.6" y2="1737.6"/>
<line class="" x1="3289.6" x2="3009.6" y1="1737.6" y2="1697.6"/>
<line class="" x1="3009.6" x2="2769.6" y1="1697.6" y2="1761.6"/>
<line class="" x1="2769.6" x2="2745.6" y1="1761.6" y2="1977.6"/>
<line class="" x1="3961.6" x2="3465.6" y1="1497.6" y2="1497.6"/>
<line class="" x1="3465.6" x2="3209.6" y1="1497.6" y2="1497.6"/>
<line class="" x1="3209.6" x2="2601.6" y1="1497.6" y2="1497.6"/>
<line class="" x1="3465.6" x2="3465.6" y1="1369.6" y2="1497.6"/>
<line class="" x1="3401.6" x2="3273.6" y1="1465.6" y2="1465.6"/>
<line class="" x1="3209.6" x2="3209.6" y1="1497.6" y2="1369.6"/>
<line class="" x1="3273.6" x2="3401.6" y1="1369.6" y2="1369.6"/>
<line class="" x1="4041.6" x2="4041.6" y1="1369.6" y2="1241.6"/>
<line class="" x1="4073.6" x2="4073.6" y1="1369.6" y2="1241.6"/>
<line class="" x1="3977.6" x2="4169.6" y1="1785.6" y2="1609.6"/>
<line class="" x1="4553.6" x2="4553.6" y1="1177.6" y2="1401.6"/>
</g>
<g class="support_lines">
<path class="sector sector-5" d="M2601.6,1945.6 L2601.6,2041.6 L2601.6,2201.6 L2697.6,2265.6 L3081.6,2265.6 L3145.6,2225.6 L3465.6,2225.6 L3497.6,2137.6 L3657.6,2033.6 L3961.6,2033.6 L3961.6,1785.6 L3961.6,1497.6 L3713.6,1401.6 L3465.6,1369.6 L3433.6,1465.6 L3401.6,1465.6 L3401.6,1441.6 L3401.6,1369.6 L3401.6,1337.6 L3401.6,1305.6 L3401.6,1273.6 L3401.6,1241.6 L3401.6,1225.6 L3465.6,1177.6 L3489.6,1177.6 L3569.6,1177.6 L3593.6,1177.6 L3841.6,1353.6 L3857.6,1353.6 L3913.6,1369.6 L3977.6,1369.6 L4009.6,1369.6 L4041.6,1369.6 L4073.6,1369.6 L4105.6,1369.6 L4105.6,1241.6 L4073.6,1241.6 L4041.6,1241.6 L4009.6,1241.6 L3977.6,1241.6 L3945.6,1241.6 L3913.6,1225.6 L3897.6,1225.6 L3593.6,1049.6 L3569.6,1049.6 L3489.6,1049.6 L3465.6,1049.6 L3337.6,1113.6 L3273.6,1225.6 L3273.6,1241.6 L3273.6,1273.6 L3273.6,1305.6 L3273.6,1337.6 L3273.6,1369.6 L3273.6,1441.6 L3273.6,1465.6 L3241.6,1465.6 L3209.6,1369.6 L2897.6,1401.6 L2753.6,1465.6 L2601.6,1497.6 L2601.6,1785.6 L2601.6,1881.6 L2601.6,1945.6 M3977.6,1561.6 L3977.6,1785.6 L3977.6,2033.6 L3977.6,2097.6 L4201.6,2073.6 L4041.6,1913.6 L4337.6,1785.6 L4169.6,1609.6 L3977.6,1561.6 M4361.6,2073.6 L4529.6,2105.6 L4625.6,1993.6 L4697.6,1713.6 L4633.6,1713.6 L4537.6,1649.6 L4577.6,1577.6 L4489.6,1529.6 L4329.6,1593.6 L4505.6,1825.6 L4209.6,1945.6 L4361.6,2073.6 M4577.6,1577.6 L4673.6,1625.6 L4697.6,1625.6 L4745.6,1561.6 L4745.6,1305.6 L4745.6,1241.6 L4553.6,1177.6 L4529.6,1177.6 L4425.6,1177.6 L4425.6,1401.6 L4529.6,1401.6 L4553.6,1401.6 L4585.6,1497.6 L4577.6,1553.6 L4577.6,1577.6" id="s-5"/>
</g>
</g>
<g transform="translate(0, 6758.400000000001)">
<rect class="frame" height="3379.2000000000003" width="5491.199999999999"/>
<g>
<path class="sector sector-5" d="M2601.6,1945.6 L2601.6,2041.6 L2601.6,2201.6 L2697.6,2265.6 L3081.6,2265.6 L3145.6,2225.6 L3465.6,2225.6 L3497.6,2137.6 L3657.6,2033.6 L3961.6,2033.6 L3961.6,1785.6 L3961.6,1497.6 L3713.6,1401.6 L3465.6,1369.6 L3433.6,1465.6 L3401.6,1465.6 L3401.6,1441.6 L3401.6,1369.6 L3401.6,1337.6 L3401.6,1305.6 L3401.6,1273.6 L3401.6,1241.6 L3401.6,1225.6 L3465.6,1177.6 L3489.6,1177.6 L3569.6,1177.6 L3593.6,1177.6 L3841.6,1353.6 L3857.6,1353.6 L3913.6,1369.6 L3977.6,1369.6 L4009.6,1369.6 L4041.6,1369.6 L4073.6,1369.6 L4105.6,1369.6 L4105.6,1241.6 L4073.6,1241.6 L4041.6,1241.6 L4009.6,1241.6 L3977.6,1241.6 L3945.6,1241.6 L3913.6,1225.6 L3897.6,1225.6 L3593.6,1049.6 L3569.6,1049.6 L3489.6,1049.6 L3465.6,1049.6 L3337.6,1113.6 L3273.6,1225.6 L3273.6,1241.6 L3273.6,1273.6 L3273.6,1305.6 L3273.6,1337.6 L3273.6,1369.6 L3273.6,1441.6 L3273.6,1465.6 L3241.6,1465.6 L3209.6,1369.6 L2897.6,1401.6 L2753.6,1465.6 L2601.6,1497.6 L2601.6,1785.6 L2601.6,1881.6 L2601.6,1945.6 M3977.6,1561.6 L3977.6,1785.6 L3977.6,2033.6 L3977.6,2097.6 L4201.6,2073.6 L4041.6,1913.6 L4337.6,1785.6 L4169.6,1609.6 L3977.6,1561.6 M4361.6,2073.6 L4529.6,2105.6 L4625.6,1993.6 L4697.6,1713.6 L4633.6,1713.6 L4537.6,1649.6 L4577.6,1577.6 L4489.6,1529.6 L4329.6,1593.6 L4505.6,1825.6 L4209.6,1945.6 L4361.6,2073.6 M4577.6,1577.6 L4673.6,1625.6 L4697.6,1625.6 L4745.6,1561.6 L4745.6,1305.6 L4745.6,1241.6 L4553.6,1177.6 L4529.6,1177.6 L4425.6,1177.6 L4425.6,1401.6 L4529.6,1401.6 L4553.6,1401.6 L4585.6,1497.6 L4577.6,1553.6 L4577.6,1577.6" id="s-5"/>
</g>
<g class="details">
<line class="" x1="3977.6" x2="4169.6" y1="2361.6" y2="2489.6"/>
<line class="" x1="3849.6" x2="3977.6" y1="2361.6" y2="2585.6"/>
<line class="special" x1="3977.6" x2="4273.6" y1="2097.6" y2="2265.6"/>
<line class="" x1="4361.6" x2="4529.6" y1="2073.6" y2="2105.6"/>
<line class="" x1="4337.6" x2="4169.6" y1="1785.6" y2="1609.6"/>
<line class="" x1="4041.6" x2="4337.6" y1="1913.6" y2="1785.6"/>
<line class="" x1="4505.6" x2="4209.6" y1="1825.6" y2="1945.6"/>
<line class="" x1="4201.6" x2="4041.6" y1="2073.6" y2="1913.6"/>
<line class="" x1="4209.6" x2="4361.6" y1="1945.6" y2="2073.6"/>
<line class="" x1="4169.6" x2="4297.6" y1="1609.6" y2="1497.6"/>
<line class="" x1="4329.6" x2="4505.6" y1="1593.6" y2="1825.6"/>
<line class="" x1="4489.6" x2="4329.6" y1="1529.6" y2="1593.6"/>
<line class="" x1="3977.6" x2="4201.6" y1="2097.6" y2="2073.6"/>
<line class="" x1="4169.6" x2="3977.6" y1="1609.6" y2="1561.6"/>
<line class="special" x1="4169.6" x2="4169.6" y1="1241.6" y2="1369.6"/>
<line class="" x1="4297.6" x2="4169.6" y1="1145.6" y2="1145.6"/>
<line class="special" x1="4297.6" x2="4169.6" y1="1129.6" y2="1129.6"/>
<line class="special" x1="4169.6" x2="4297.6" y1="1113.6" y2="1113.6"/>
<line class="blocking" x1="4113.6" x2="4113.6" y1="793.6" y2="825.6"/>
<line class="blocking" x1="4113.6" x2="4113.6" y1="825.6" y2="953.6"/>
<line class="blocking" x1="4113.6" x2="4113.6" y1="953.6" y2="985.6"/>
<line class="blocking" x1="4353.6" x2="4353.6" y1="825.6" y2="793.6"/>
<line class="blocking" x1="4353.6" x2="4353.6" y1="985.6" y2="953.6"/>
<line class="blocking" x1="4353.6" x2="4353.6" y1="953.6" y2="825.6"/>
<line class="special" x1="4137.6" x2="4329.6" y1="985.6" y2="985.6"/>
<line class="" x1="4329.6" x2="4137.6" y1="793.6" y2="793.6"/>
<line class="" x1="4081.6" x2="4081.6" y1="793.6" y2="985.6"/>
<line class="" x1="4385.6" x2="4385.6" y1="985.6" y2="793.6"/>
<line class="" x1="4169.6" x2="4297.6" y1="601.6" y2="601.6"/>
<line class="" x1="4105.6" x2="4105.6" y1="1369.6" y2="1241.6"/>
<line class="special" x1="4137.6" x2="4137.6" y1="1369.6" y2="1241.6"/>
<line class="" x1="4249.6" x2="4217.6" y1="553.6" y2="553.6"/>
<line class="" x1="4217.6" x2="4249.6" y1="545.6" y2="545.6"/>
<line class="" x1="4249.6" x2="4249.6" y1="545.6" y2="553.6"/>
<line class="" x1="4217.6" x2="4217.6" y1="553.6" y2="545.6"/>
<line class="" x1="4265.6" x2="4201.6" y1="537.6" y2="537.6"/>
<line class="special" x1="4265.6" x2="4201.6" y1="513.6" y2="513.6"/>
<line class="special" x1="4201.6" x2="4265.6" y1="497.6" y2="497.6"/>
<line class="" x1="4201.6" x2="4265.6" y1="473.6" y2="473.6"/>
<line class="" x1="4249.6" x2="4217.6" y1="305.6" y2="305.6"/>
<line class="" x1="4217.6" x2="4249.6" y1="297.6" y2="297.6"/>
<line class="" x1="4249.6" x2="4249.6" y1="297.6" y2="305.6"/>
<line class="" x1="4217.6" x2="4217.6" y1="305.6" y2="297.6"/>
<line class="" x1="1721.6" x2="1721.6" y1="1985.6" y2="1841.6"/>
<line class="" x1="2153.6" x2="2409.6" y1="2041.6" y2="2041.6"/>
<line class="" x1="2409.6" x2="2153.6" y1="1785.6" y2="1785.6"/>
<line class="" x1="2153.6" x2="2153.6" y1="1785.6" y2="2041.6"/>
</g>
<g class="support_lines">
<path class="sector sector-5" d="M2601.6,1945.6 L2601.6,2041.6 L2601.6,2201.6 L2697.6,2265.6 L3081.6,2265.6 L3145.6,2225.6 L3465.6,2225.6 L3497.6,2137.6 L3657.6,2033.6 L3961.6,2033.6 L3961.6,1785.6 L3961.6,1497.6 L3713.6,1401.6 L3465.6,1369.6 L3433.6,1465.6 L3401.6,1465.6 L3401.6,1441.6 L3401.6,1369.6 L3401.6,1337.6 L3401.6,1305.6 L3401.6,1273.6 L3401.6,1241.6 L3401.6,1225.6 L3465.6,1177.6 L3489.6,1177.6 L3569.6,1177.6 L3593.6,1177.6 L3841.6,1353.6 L3857.6,1353.6 L3913.6,1369.6 L3977.6,1369.6 L4009.6,1369.6 L4041.6,1369.6 L4073.6,1369.6 L4105.6,1369.6 L4137.6,1369.6 L4169.6,1369.6 L4169.6,1497.6 L3977.6,1561.6 L3977.6,1785.6 L3977.6,2033.6 L3977.6,2097.6 L3977.6,2233.6 L4105.6,2233.6 L4105.6,2265.6 L3977.6,2345.6 L3977.6,2361.6 L3849.6,2361.6 L3745.6,2457.6 L3721.6,2457.6 L3721.6,2585.6 L3745.6,2585.6 L3977.6,2585.6 L4169.6,2489.6 L4185.6,2489.6 L4273.6,2265.6 L4273.6,2201.6 L4529.6,2105.6 L4625.6,1993.6 L4697.6,1713.6 L4633.6,1713.6 L4537.6,1649.6 L4577.6,1577.6 L4489.6,1529.6 L4297.6,1497.6 L4297.6,1145.6 L4297.6,1129.6 L4297.6,1113.6 L4329.6,1017.6 L4329.6,985.6 L4353.6,985.6 L4385.6,985.6 L4425.6,1017.6 L4553.6,1017.6 L4553.6,601.6 L4297.6,601.6 L4297.6,537.6 L4265.6,537.6 L4265.6,513.6 L4265.6,497.6 L4265.6,473.6 L4329.6,473.6 L4329.6,281.6 L4137.6,281.6 L4137.6,345.6 L4137.6,409.6 L4137.6,473.6 L4201.6,473.6 L4201.6,497.6 L4201.6,513.6 L4201.6,537.6 L4169.6,537.6 L4169.6,601.6 L3913.6,601.6 L3913.6,1017.6 L4041.6,1017.6 L4081.6,985.6 L4113.6,985.6 L4137.6,985.6 L4137.6,1017.6 L4169.6,1113.6 L4169.6,1129.6 L4169.6,1145.6 L4169.6,1241.6 L4137.6,1241.6 L4105.6,1241.6 L4073.6,1241.6 L4041.6,1241.6 L4009.6,1241.6 L3977.6,1241.6 L3945.6,1241.6 L3913.6,1225.6 L3897.6,1225.6 L3593.6,1049.6 L3569.6,1049.6 L3489.6,1049.6 L3465.6,1049.6 L3337.6,1113.6 L3273.6,1225.6 L3273.6,1241.6 L3273.6,1273.6 L3273.6,1305.6 L3273.6,1337.6 L3273.6,1369.6 L3273.6,1441.6 L3273.6,1465.6 L3241.6,1465.6 L3209.6,1369.6 L2897.6,1401.6 L2753.6,1465.6 L2601.6,1497.6 L2601.6,1785.6 L2601.6,1881.6 L2601.6,1945.6 M4385.6,793.6 L4353.6,793.6 L4329.6,793.6 L4329.6,761.6 L4385.6,761.6 L4385.6,793.6 M4137.6,793.6 L4113.6,793.6 L4081.6,793.6 L4081.6,761.6 L4137.6,761.6 L4137.6,793.6 M1721.6,1841.6 L1721.6,1817.6 L1673.6,1689.6 L1353.6,1689.6 L1289.6,1753.6 L1353.6,1881.6 L1385.6,1881.6 L1417.6,1881.6 L1449.6,1881.6 L1481.6,1881.6 L1513.6,1881.6 L1545.6,1881.6 L1545.6,1945.6 L1513.6,1945.6 L1481.6,1945.6 L1449.6,1945.6 L1417.6,1945.6 L1385.6,1945.6 L1353.6,1945.6 L1289.6,2073.6 L1353.6,2137.6 L1673.6,2137.6 L1721.6,2009.6 L1721.6,1985.6 L1737.6,1985.6 L1737.6,2009.6 L1905.6,2041.6 L1929.6,2041.6 L1929.6,1785.6 L1905.6,1785.6 L1737.6,1817.6 L1737.6,1841.6 L1721.6,1841.6 M1481.6,2009.6 L1545.6,2009.6 L1545.6,2073.6 L1481.6,2073.6 L1481.6,2009.6 M1481.6,1753.6 L1545.6,1753.6 L1545.6,1817.6 L1481.6,1817.6 L1481.6,1753.6 M2153.6,1753.6 L2153.6,1785.6 L2121.6,1785.6 L2121.6,2041.6 L2153.6,2041.6 L2153.6,2073.6 L2409.6,2073.6 L2409.6,2041.6 L2441.6,2041.6 L2441.6,2073.6 L2569.6,2041.6 L2569.6,1945.6 L2569.6,1881.6 L2569.6,1785.6 L2441.6,1753.6 L2441.6,1785.6 L2409.6,1785.6 L2409.6,1753.6 L2153.6,1753.6 M4577.6,1577.6 L4673.6,1625.6 L4697.6,1625.6 L4745.6,1561.6 L4745.6,1305.6 L4745.6,1241.6 L4553.6,1177.6 L4529.6,1177.6 L4425.6,1177.6 L4425.6,1401.6 L4529.6,1401.6 L4553.6,1401.6 L4585.6,1497.6 L4577.6,1553.6 L4577.6,1577.6" id="s-5"/>
</g>
</g>
<g transform="translate(0, 10137.6)">
<rect class="frame" height="3379.2000000000003" width="5491.199999999999"/>
<g>
<path class="sector sector-5" d="M2601.6,1945.6 L2601.6,2041.6 L2601.6,2201.6 L2697.6,2265.6 L3081.6,2265.6 L3145.6,2225.6 L3465.6,2225.6 L3497.6,2137.6 L3657.6,2033.6 L3961.6,2033.6 L3961.6,1785.6 L3961.6,1497.6 L3713.6,1401.6 L3465.6,1369.6 L3433.6,1465.6 L3401.6,1465.6 L3401.6,1441.6 L3401.6,1369.6 L3401.6,1337.6 L3401.6,1305.6 L3401.6,1273.6 L3401.6,1241.6 L3401.6,1225.6 L3465.6,1177.6 L3489.6,1177.6 L3569.6,1177.6 L3593.6,1177.6 L3841.6,1353.6 L3857.6,1353.6 L3913.6,1369.6 L3977.6,1369.6 L4009.6,1369.6 L4041.6,1369.6 L4073.6,1369.6 L4105.6,1369.6 L4137.6,1369.6 L4169.6,1369.6 L4169.6,1497.6 L3977.6,1561.6 L3977.6,1785.6 L3977.6,2033.6 L3977.6,2097.6 L3977.6,2233.6 L4105.6,2233.6 L4105.6,2265.6 L3977.6,2345.6 L3977.6,2361.6 L3849.6,2361.6 L3745.6,2457.6 L3721.6,2457.6 L3721.6,2585.6 L3745.6,2585.6 L3977.6,2585.6 L4169.6,2489.6 L4185.6,2489.6 L4273.6,2265.6 L4273.6,2201.6 L4529.6,2105.6 L4625.6,1993.6 L4697.6,1713.6 L4633.6,1713.6 L4537.6,1649.6 L4577.6,1577.6 L4489.6,1529.6 L4297.6,1497.6 L4297.6,1145.6 L4297.6,1129.6 L4297.6,1113.6 L4329.6,1017.6 L4329.6,985.6 L4353.6,985.6 L4385.6,985.6 L4425.6,1017.6 L4553.6,1017.6 L4553.6,601.6 L4297.6,601.6 L4297.6,537.6 L4265.6,537.6 L4265.6,513.6 L4265.6,497.6 L4265.6,473.6 L4329.6,473.6 L4329.6,281.6 L4137.6,281.6 L4137.6,345.6 L4137.6,409.6 L4137.6,473.6 L4201.6,473.6 L4201.6,497.6 L4201.6,513.6 L4201.6,537.6 L4169.6,537.6 L4169.6,601.6 L3913.6,601.6 L3913.6,1017.6 L4041.6,1017.6 L4081.6,985.6 L4113.6,985.6 L4137.6,985.6 L4137.6,1017.6 L4169.6,1113.6 L4169.6,1129.6 L4169.6,1145.6 L4169.6,1241.6 L4137.6,1241.6 L4105.6,1241.6 L4073.6,1241.6 L4041.6,1241.6 L4009.6,1241.6 L3977.6,1241.6 L3945.6,1241.6 L3913.6,1225.6 L3897.6,1225.6 L3593.6,1049.6 L3569.6,1049.6 L3489.6,1049.6 L3465.6,1049.6 L3337.6,1113.6 L3273.6,1225.6 L3273.6,1241.6 L3273.6,1273.6 L3273.6,1305.6 L3273.6,1337.6 L3273.6,1369.6 L3273.6,1441.6 L3273.6,1465.6 L3241.6,1465.6 L3209.6,1369.6 L2897.6,1401.6 L2753.6,1465.6 L2601.6,1497.6 L2601.6,1785.6 L2601.6,1881.6 L2601.6,1945.6 M4385.6,793.6 L4353.6,793.6 L4329.6,793.6 L4329.6,761.6 L4385.6,761.6 L4385.6,793.6 M4137.6,793.6 L4113.6,793.6 L4081.6,793.6 L4081.6,761.6 L4137.6,761.6 L4137.6,793.6 M1721.6,1841.6 L1721.6,1817.6 L1673.6,1689.6 L1353.6,1689.6 L1289.6,1753.6 L1353.6,1881.6 L1385.6,1881.6 L1417.6,1881.6 L1449.6,1881.6 L1481.6,1881.6 L1513.6,1881.6 L1545.6,1881.6 L1545.6,1945.6 L1513.6,1945.6 L1481.6,1945.6 L1449.6,1945.6 L1417.6,1945.6 L1385.6,1945.6 L1353.6,1945.6 L1289.6,2073.6 L1353.6,2137.6 L1673.6,2137.6 L1721.6,2009.6 L1721.6,1985.6 L1737.6,1985.6 L1737.6,2009.6 L1905.6,2041.6 L1929.6,2041.6 L1929.6,1785.6 L1905.6,1785.6 L1737.6,1817.6 L1737.6,1841.6 L1721.6,1841.6 M1481.6,2009.6 L1545.6,2009.6 L1545.6,2073.6 L1481.6,2073.6 L1481.6,2009.6 M1481.6,1753.6 L1545.6,1753.6 L1545.6,1817.6 L1481.6,1817.6 L1481.6,1753.6 M2153.6,1753.6 L2153.6,1785.6 L2121.6,1785.6 L2121.6,2041.6 L2153.6,2041.6 L2153.6,2073.6 L2409.6,2073.6 L2409.6,2041.6 L2441.6,2041.6 L2441.6,2073.6 L2569.6,2041.6 L2569.6,1945.6 L2569.6,1881.6 L2569.6,1785.6 L2441.6,1753.6 L2441.6,1785.6 L2409.6,1785.6 L2409.6,1753.6 L2153.6,1753.6 M4577.6,1577.6 L4673.6,1625.6 L4697.6,1625.6 L4745.6,1561.6 L4745.6,1305.6 L4745.6,1241.6 L4553.6,1177.6 L4529.6,1177.6 L4425.6,1177.6 L4425.6,1401.6 L4529.6,1401.6 L4553.6,1401.6 L4585.6,1497.6 L4577.6,1553.6 L4577.6,1577.6" id="s-5"/>
</g>
<g class="details">
<line class="special" x1="2777.6" x2="2777.6" y1="2585.6" y2="2713.6"/>
<line class="" x1="2889.6" x2="2889.6" y1="2585.6" y2="2713.6"/>
<line class="" x1="2889.6" x2="2889.6" y1="2777.6" y2="3033.6"/>
<line class="" x1="2889.6" x2="3721.6" y1="3033.6" y2="3033.6"/>
<line class="" x1="3721.6" x2="3721.6" y1="3033.6" y2="2649.6"/>
<line class="" x1="3401.6" x2="2889.6" y1="2393.6" y2="2393.6"/>
<line class="" x1="2889.6" x2="2889.6" y1="2393.6" y2="2521.6"/>
<line class="" x1="3721.6" x2="3721.6" y1="2585.6" y2="2457.6"/>
<line class="" x1="3369.6" x2="3369.6" y1="2841.6" y2="2585.6"/>
<line class="" x1="3217.6" x2="3009.6" y1="2593.6" y2="2593.6"/>
<line class="" x1="3009.6" x2="3009.6" y1="2593.6" y2="2513.6"/>
<line class="" x1="3009.6" x2="3217.6" y1="2513.6" y2="2513.6"/>
<line class="" x1="3217.6" x2="3217.6" y1="2513.6" y2="2593.6"/>
<line class="" x1="3009.6" x2="3217.6" y1="2833.6" y2="2833.6"/>
<line class="" x1="3217.6" x2="3217.6" y1="2833.6" y2="2913.6"/>
<line class="" x1="3217.6" x2="3009.6" y1="2913.6" y2="2913.6"/>
<line class="" x1="3009.6" x2="3009.6" y1="2913.6" y2="2833.6"/>
<line class="special" x1="2761.6" x2="2761.6" y1="2713.6" y2="2585.6"/>
<line class="" x1="2697.6" x2="2697.6" y1="2713.6" y2="2585.6"/>
<line class="" x1="2569.6" x2="2441.6" y1="2265.6" y2="2265.6"/>
<line class="" x1="1481.6" x2="1513.6" y1="1881.6" y2="1881.6"/>
<line class="" x1="1513.6" x2="1545.6" y1="1881.6" y2="1881.6"/>
<line class="" x1="1545.6" x2="1545.6" y1="1881.6" y2="1945.6"/>
<line class="" x1="1545.6" x2="1513.6" y1="1945.6" y2="1945.6"/>
<line class="" x1="1513.6" x2="1481.6" y1="1945.6" y2="1945.6"/>
<line class="" x1="1513.6" x2="1513.6" y1="1881.6" y2="1945.6"/>
<line class="" x1="1929.6" x2="1929.6" y1="2041.6" y2="1785.6"/>
<line class="" x1="2409.6" x2="2153.6" y1="1753.6" y2="1753.6"/>
<line class="" x1="2569.6" x2="2441.6" y1="1785.6" y2="1753.6"/>
<line class="" x1="2441.6" x2="2569.6" y1="2073.6" y2="2041.6"/>
<line class="" x1="2313.6" x2="2249.6" y1="1497.6" y2="1497.6"/>
<line class="" x1="2121.6" x2="2121.6" y1="1785.6" y2="2041.6"/>
<line class="" x1="2153.6" x2="2409.6" y1="2073.6" y2="2073.6"/>
<line class="" x1="3209.6" x2="3209.6" y1="2521.6" y2="2585.6"/>
<line class="" x1="3209.6" x2="3017.6" y1="2585.6" y2="2585.6"/>
<line class="" x1="3017.6" x2="3017.6" y1="2585.6" y2="2521.6"/>
<line class="" x1="3017.6" x2="3209.6" y1="2521.6" y2="2521.6"/>
<line class="" x1="3209.6" x2="3209.6" y1="2841.6" y2="2905.6"/>
<line class="" x1="3209.6" x2="3017.6" y1="2905.6" y2="2905.6"/>
<line class="" x1="3017.6" x2="3017.6" y1="2905.6" y2="2841.6"/>
<line class="" x1="3017.6" x2="3209.6" y1="2841.6" y2="2841.6"/>
<line class="" x1="3401.6" x2="3401.6" y1="2841.6" y2="2585.6"/>
<line class="" x1="3433.6" x2="3433.6" y1="2841.6" y2="2585.6"/>
<line class="" x1="2601.6" x2="2601.6" y1="1945.6" y2="2041.6"/>
<line class="" x1="2601.6" x2="2601.6" y1="1785.6" y2="1881.6"/>
<line class="blocking" x1="3961.6" x2="3961.6" y1="2033.6" y2="1785.6"/>
<line class="blocking" x1="3977.6" x2="3977.6" y1="1785.6" y2="2033.6"/>
<line class="blocking" x1="2569.6" x2="2569.6" y1="2041.6" y2="1945.6"/>
<line class="blocking" x1="2569.6" x2="2569.6" y1="1881.6" y2="1785.6"/>
<line class="" x1="1289.6" x2="585.6" y1="1497.6" y2="1625.6"/>
<line class="" x1="585.6" x2="585.6" y1="1625.6" y2="2201.6"/>
<line class="" x1="585.6" x2="1289.6" y1="2201.6" y2="2329.6"/>
</g>
<g class="support_lines">
<path class="sector sector-0" d="M2889.6,2585.6 L2777.6,2585.6 L2761.6,2585.6 L2697.6,2585.6 L2609.6,2553.6 L2569.6,2265.6 L2569.6,2041.6 L2601.6,2041.6 L2601.6,2201.6 L2697.6,2265.6 L3081.6,2265.6 L3145.6,2225.6 L3465.6,2225.6 L3497.6,2137.6 L3657.6,2033.6 L3961.6,2033.6 L3977.6,2033.6 L3977.6,2097.6 L3977.6,2233.6 L4105.6,2233.6 L4105.6,2265.6 L3977.6,2345.6 L3977.6,2361.6 L3849.6,2361.6 L3745.6,2457.6 L3721.6,2457.6 L3721.6,2393.6 L3425.6,2393.6 L3401.6,2393.6 L3401.6,2329.6 L2889.6,2329.6 L2825.6,2329.6 L2825.6,2393.6 L2825.6,2521.6 L2889.6,2521.6 L2889.6,2545.6 L2889.6,2585.6 M2777.6,2713.6 L2889.6,2713.6 L2889.6,2753.6 L2889.6,2777.6 L2825.6,2777.6 L2825.6,3033.6 L2825.6,3097.6 L2889.6,3097.6 L3721.6,3097.6 L3785.6,3097.6 L3785.6,3033.6 L3785.6,2649.6 L3721.6,2649.6 L3721.6,2625.6 L3721.6,2585.6 L3745.6,2585.6 L3977.6,2585.6 L4169.6,2489.6 L4185.6,2489.6 L4273.6,2265.6 L4273.6,2201.6 L4529.6,2105.6 L4625.6,1993.6 L4697.6,1713.6 L4633.6,1713.6 L4537.6,1649.6 L4577.6,1577.6 L4489.6,1529.6 L4297.6,1497.6 L4297.6,1145.6 L4297.6,1129.6 L4297.6,1113.6 L4329.6,1017.6 L4329.6,985.6 L4353.6,985.6 L4385.6,985.6 L4425.6,1017.6 L4553.6,1017.6 L4553.6,601.6 L4297.6,601.6 L4297.6,537.6 L4265.6,537.6 L4265.6,513.6 L4265.6,497.6 L4265.6,473.6 L4329.6,473.6 L4329.6,281.6 L4137.6,281.6 L4137.6,345.6 L4137.6,409.6 L4137.6,473.6 L4201.6,473.6 L4201.6,497.6 L4201.6,513.6 L4201.6,537.6 L4169.6,537.6 L4169.6,601.6 L3913.6,601.6 L3913.6,1017.6 L4041.6,1017.6 L4081.6,985.6 L4113.6,985.6 L4137.6,985.6 L4137.6,1017.6 L4169.6,1113.6 L4169.6,1129.6 L4169.6,1145.6 L4169.6,1241.6 L4137.6,1241.6 L4105.6,1241.6 L4073.6,1241.6 L4041.6,1241.6 L4009.6,1241.6 L3977.6,1241.6 L3945.6,1241.6 L3913.6,1225.6 L3897.6,1225.6 L3593.6,1049.6 L3569.6,1049.6 L3489.6,1049.6 L3465.6,1049.6 L3337.6,1113.6 L3273.6,1225.6 L3273.6,1241.6 L3273.6,1273.6 L3273.6,1305.6 L3273.6,1337.6 L3273.6,1369.6 L3273.6,1441.6 L3273.6,1465.6 L3241.6,1465.6 L3209.6,1369.6 L2897.6,1401.6 L2753.6,1465.6 L2601.6,1497.6 L2601.6,1785.6 L2569.6,1785.6 L2569.6,1593.6 L2505.6,1593.6 L2377.6,1497.6 L2313.6,1497.6 L2313.6,1465.6 L2249.6,1465.6 L2249.6,1497.6 L2185.6,1497.6 L2057.6,1593.6 L1929.6,1593.6 L1929.6,1785.6 L1905.6,1785.6 L1737.6,1817.6 L1737.6,1841.6 L1721.6,1841.6 L1721.6,1817.6 L1673.6,1689.6 L1353.6,1689.6 L1289.6,1753.6 L1353.6,1881.6 L1385.6,1881.6 L1417.6,1881.6 L1449.6,1881.6 L1481.6,1881.6 L1481.6,1945.6 L1449.6,1945.6 L1417.6,1945.6 L1385.6,1945.6 L1353.6,1945.6 L1289.6,2073.6 L1353.6,2137.6 L1673.6,2137.6 L1721.6,2009.6 L1721.6,1985.6 L1737.6,1985.6 L1737.6,2009.6 L1905.6,2041.6 L1929.6,2041.6 L1929.6,2201.6 L2057.6,2201.6 L2193.6,2265.6 L2441.6,2265.6 L2473.6,2617.6 L2697.6,2713.6 L2761.6,2713.6 L2777.6,2713.6 M3337.6,2553.6 L3561.6,2553.6 L3561.6,2873.6 L3337.6,2873.6 L3337.6,2841.6 L3369.6,2841.6 L3401.6,2841.6 L3433.6,2841.6 L3529.6,2841.6 L3529.6,2585.6 L3433.6,2585.6 L3401.6,2585.6 L3369.6,2585.6 L3337.6,2585.6 L3337.6,2553.6 M4169.6,1497.6 L3977.6,1561.6 L3977.6,1785.6 L3961.6,1785.6 L3961.6,1497.6 L3713.6,1401.6 L3465.6,1369.6 L3433.6,1465.6 L3401.6,1465.6 L3401.6,1441.6 L3401.6,1369.6 L3401.6,1337.6 L3401.6,1305.6 L3401.6,1273.6 L3401.6,1241.6 L3401.6,1225.6 L3465.6,1177.6 L3489.6,1177.6 L3569.6,1177.6 L3593.6,1177.6 L3841.6,1353.6 L3857.6,1353.6 L3913.6,1369.6 L3977.6,1369.6 L4009.6,1369.6 L4041.6,1369.6 L4073.6,1369.6 L4105.6,1369.6 L4137.6,1369.6 L4169.6,1369.6 L4169.6,1497.6 M1481.6,2009.6 L1545.6,2009.6 L1545.6,2073.6 L1481.6,2073.6 L1481.6,2009.6 M1481.6,1753.6 L1545.6,1753.6 L1545.6,1817.6 L1481.6,1817.6 L1481.6,1753.6 M2121.6,1753.6 L2153.6,1753.6 L2153.6,1785.6 L2121.6,1785.6 L2121.6,1753.6 M2409.6,1753.6 L2441.6,1753.6 L2441.6,1785.6 L2409.6,1785.6 L2409.6,1753.6 M2121.6,2073.6 L2121.6,2041.6 L2153.6,2041.6 L2153.6,2073.6 L2121.6,2073.6 M2441.6,2073.6 L2409.6,2073.6 L2409.6,2041.6 L2441.6,2041.6 L2441.6,2073.6 M4385.6,793.6 L4353.6,793.6 L4329.6,793.6 L4329.6,761.6 L4385.6,761.6 L4385.6,793.6 M4137.6,793.6 L4113.6,793.6 L4081.6,793.6 L4081.6,761.6 L4137.6,761.6 L4137.6,793.6 M2601.6,1881.6 L2601.6,1945.6 L2569.6,1945.6 L2569.6,1881.6 L2601.6,1881.6 M1289.6,1497.6 L585.6,1497.6 L457.6,1625.6 L457.6,2201.6 L585.6,2329.6 L1289.6,2329.6 L1289.6,2201.6 L1129.6,2025.6 L1097.6,2025.6 L969.6,2025.6 L889.6,2025.6 L889.6,1977.6 L889.6,1849.6 L889.6,1801.6 L969.6,1801.6 L1097.6,1801.6 L1129.6,1801.6 L1289.6,1625.6 L1289.6,1497.6 M4577.6,1577.6 L4673.6,1625.6 L4697.6,1625.6 L4745.6,1561.6 L4745.6,1305.6 L4745.6,1241.6 L4553.6,1177.6 L4529.6,1177.6 L4425.6,1177.6 L4425.6,1401.6 L4529.6,1401.6 L4553.6,1401.6 L4585.6,1497.6 L4577.6,1553.6 L4577.6,1577.6" id="s-0"/>
</g>
</g>
<g transform="translate(0, 13516.800000000001)">
<rect class="frame" height="3379.2000000000003" width="5491.199999999999"/>
<g>
<path class="sector sector-0" d="M2889.6,2585.6 L2777.6,2585.6 L2761.6,2585.6 L2697.6,2585.6 L2609.6,2553.6 L2569.6,2265.6 L2569.6,2041.6 L2601.6,2041.6 L2601.6,2201.6 L2697.6,2265.6 L3081.6,2265.6 L3145.6,2225.6 L3465.6,2225.6 L3497.6,2137.6 L3657.6,2033.6 L3961.6,2033.6 L3977.6,2033.6 L3977.6,2097.6 L3977.6,2233.6 L4105.6,2233.6 L4105.6,2265.6 L3977.6,2345.6 L3977.6,2361.6 L3849.6,2361.6 L3745.6,2457.6 L3721.6,2457.6 L3721.6,2393.6 L3425.6,2393.6 L3401.6,2393.6 L3401.6,2329.6 L2889.6,2329.6 L2825.6,2329.6 L2825.6,2393.6 L2825.6,2521.6 L2889.6,2521.6 L2889.6,2545.6 L2889.6,2585.6 M2777.6,2713.6 L2889.6,2713.6 L2889.6,2753.6 L2889.6,2777.6 L2825.6,2777.6 L2825.6,3033.6 L2825.6,3097.6 L2889.6,3097.6 L3721.6,3097.6 L3785.6,3097.6 L3785.6,3033.6 L3785.6,2649.6 L3721.6,2649.6 L3721.6,2625.6 L3721.6,2585.6 L3745.6,2585.6 L3977.6,2585.6 L4169.6,2489.6 L4185.6,2489.6 L4273.6,2265.6 L4273.6,2201.6 L4529.6,2105.6 L4625.6,1993.6 L4697.6,1713.6 L4633.6,1713.6 L4537.6,1649.6 L4577.6,1577.6 L4489.6,1529.6 L4297.6,1497.6 L4297.6,1145.6 L4297.6,1129.6 L4297.6,1113.6 L4329.6,1017.6 L4329.6,985.6 L4353.6,985.6 L4385.6,985.6 L4425.6,1017.6 L4553.6,1017.6 L4553.6,601.6 L4297.6,601.6 L4297.6,537.6 L4265.6,537.6 L4265.6,513.6 L4265.6,497.6 L4265.6,473.6 L4329.6,473.6 L4329.6,281.6 L4137.6,281.6 L4137.6,345.6 L4137.6,409.6 L4137.6,473.6 L4201.6,473.6 L4201.6,497.6 L4201.6,513.6 L4201.6,537.6 L4169.6,537.6 L4169.6,601.6 L3913.6,601.6 L3913.6,1017.6 L4041.6,1017.6 L4081.6,985.6 L4113.6,985.6 L4137.6,985.6 L4137.6,1017.6 L4169.6,1113.6 L4169.6,1129.6 L4169.6,1145.6 L4169.6,1241.6 L4137.6,1241.6 L4105.6,1241.6 L4073.6,1241.6 L4041.6,1241.6 L4009.6,1241.6 L3977.6,1241.6 L3945.6,1241.6 L3913.6,1225.6 L3897.6,1225.6 L3593.6,1049.6 L3569.6,1049.6 L3489.6,1049.6 L3465.6,1049.6 L3337.6,1113.6 L3273.6,1225.6 L3273.6,1241.6 L3273.6,1273.6 L3273.6,1305.6 L3273.6,1337.6 L3273.6,1369.6 L3273.6,1441.6 L3273.6,1465.6 L3241.6,1465.6 L3209.6,1369.6 L2897.6,1401.6 L2753.6,1465.6 L2601.6,1497.6 L2601.6,1785.6 L2569.6,1785.6 L2569.6,1593.6 L2505.6,1593.6 L2377.6,1497.6 L2313.6,1497.6 L2313.6,1465.6 L2249.6,1465.6 L2249.6,1497.6 L2185.6,1497.6 L2057.6,1593.6 L1929.6,1593.6 L1929.6,1785.6 L1905.6,1785.6 L1737.6,1817.6 L1737.6,1841.6 L1721.6,1841.6 L1721.6,1817.6 L1673.6,1689.6 L1353.6,1689.6 L1289.6,1753.6 L1353.6,1881.6 L1385.6,1881.6 L1417.6,1881.6 L1449.6,1881.6 L1481.6,1881.6 L1481.6,1945.6 L1449.6,1945.6 L1417.6,1945.6 L1385.6,1945.6 L1353.6,1945.6 L1289.6,2073.6 L1353.6,2137.6 L1673.6,2137.6 L1721.6,2009.6 L1721.6,1985.6 L1737.6,1985.6 L1737.6,2009.6 L1905.6,2041.6 L1929.6,2041.6 L1929.6,2201.6 L2057.6,2201.6 L2193.6,2265.6 L2441.6,2265.6 L2473.6,2617.6 L2697.6,2713.6 L2761.6,2713.6 L2777.6,2713.6 M3337.6,2553.6 L3561.6,2553.6 L3561.6,2873.6 L3337.6,2873.6 L3337.6,2841.6 L3369.6,2841.6 L3401.6,2841.6 L3433.6,2841.6 L3529.6,2841.6 L3529.6,2585.6 L3433.6,2585.6 L3401.6,2585.6 L3369.6,2585.6 L3337.6,2585.6 L3337.6,2553.6 M4169.6,1497.6 L3977.6,1561.6 L3977.6,1785.6 L3961.6,1785.6 L3961.6,1497.6 L3713.6,1401.6 L3465.6,1369.6 L3433.6,1465.6 L3401.6,1465.6 L3401.6,1441.6 L3401.6,1369.6 L3401.6,1337.6 L3401.6,1305.6 L3401.6,1273.6 L3401.6,1241.6 L3401.6,1225.6 L3465.6,1177.6 L3489.6,1177.6 L3569.6,1177.6 L3593.6,1177.6 L3841.6,1353.6 L3857.6,1353.6 L3913.6,1369.6 L3977.6,1369.6 L4009.6,1369.6 L4041.6,1369.6 L4073.6,1369.6 L4105.6,1369.6 L4137.6,1369.6 L4169.6,1369.6 L4169.6,1497.6 M1481.6,2009.6 L1545.6,2009.6 L1545.6,2073.6 L1481.6,2073.6 L1481.6,2009.6 M1481.6,1753.6 L1545.6,1753.6 L1545.6,1817.6 L1481.6,1817.6 L1481.6,1753.6 M2121.6,1753.6 L2153.6,1753.6 L2153.6,1785.6 L2121.6,1785.6 L2121.6,1753.6 M2409.6,1753.6 L2441.6,1753.6 L2441.6,1785.6 L2409.6,1785.6 L2409.6,1753.6 M2121.6,2073.6 L2121.6,2041.6 L2153.6,2041.6 L2153.6,2073.6 L2121.6,2073.6 M2441.6,2073.6 L2409.6,2073.6 L2409.6,2041.6 L2441.6,2041.6 L2441.6,2073.6 M4385.6,793.6 L4353.6,793.6 L4329.6,793.6 L4329.6,761.6 L4385.6,761.6 L4385.6,793.6 M4137.6,793.6 L4113.6,793.6 L4081.6,793.6 L4081.6,761.6 L4137.6,761.6 L4137.6,793.6 M2601.6,1881.6 L2601.6,1945.6 L2569.6,1945.6 L2569.6,1881.6 L2601.6,1881.6 M1289.6,1497.6 L585.6,1497.6 L457.6,1625.6 L457.6,2201.6 L585.6,2329.6 L1289.6,2329.6 L1289.6,2201.6 L1129.6,2025.6 L1097.6,2025.6 L969.6,2025.6 L889.6,2025.6 L889.6,1977.6 L889.6,1849.6 L889.6,1801.6 L969.6,1801.6 L1097.6,1801.6 L1129.6,1801.6 L1289.6,1625.6 L1289.6,1497.6 M4577.6,1577.6 L4673.6,1625.6 L4697.6,1625.6 L4745.6,1561.6 L4745.6,1305.6 L4745.6,1241.6 L4553.6,1177.6 L4529.6,1177.6 L4425.6,1177.6 L4425.6,1401.6 L4529.6,1401.6 L4553.6,1401.6 L4585.6,1497.6 L4577.6,1553.6 L4577.6,1577.6" id="s-0"/>
</g>
<g class="details">
<line class="" x1="4697.6" x2="4633.6" y1="1713.6" y2="1713.6"/>
<line class="" x1="4633.6" x2="4537.6" y1="1713.6" y2="1649.6"/>
<line class="" x1="4537.6" x2="4577.6" y1="1649.6" y2="1577.6"/>
<line class="" x1="4529.6" x2="4625.6" y1="2105.6" y2="1993.6"/>
<line class="" x1="1353.6" x2="1385.6" y1="1881.6" y2="1881.6"/>
<line class="" x1="1385.6" x2="1417.6" y1="1881.6" y2="1881.6"/>
<line class="" x1="1417.6" x2="1449.6" y1="1881.6" y2="1881.6"/>
<line class="" x1="1449.6" x2="1481.6" y1="1881.6" y2="1881.6"/>
<line class="" x1="1481.6" x2="1449.6" y1="1945.6" y2="1945.6"/>
<line class="" x1="1449.6" x2="1417.6" y1="1945.6" y2="1945.6"/>
<line class="" x1="1417.6" x2="1385.6" y1="1945.6" y2="1945.6"/>
<line class="" x1="1385.6" x2="1353.6" y1="1945.6" y2="1945.6"/>
<line class="" x1="1353.6" x2="1289.6" y1="1945.6" y2="2073.6"/>
<line class="" x1="1289.6" x2="1353.6" y1="1753.6" y2="1881.6"/>
<line class="" x1="1481.6" x2="1545.6" y1="2009.6" y2="2009.6"/>
<line class="" x1="1545.6" x2="1545.6" y1="2009.6" y2="2073.6"/>
<line class="" x1="1545.6" x2="1481.6" y1="2073.6" y2="2073.6"/>
<line class="" x1="1481.6" x2="1481.6" y1="2073.6" y2="2009.6"/>
<line class="" x1="1481.6" x2="1545.6" y1="1753.6" y2="1753.6"/>
<line class="" x1="1545.6" x2="1545.6" y1="1753.6" y2="1817.6"/>
<line class="" x1="1545.6" x2="1481.6" y1="1817.6" y2="1817.6"/>
<line class="" x1="1481.6" x2="1481.6" y1="1817.6" y2="1753.6"/>
<line class="" x1="1481.6" x2="1481.6" y1="1881.6" y2="1945.6"/>
<line class="" x1="1385.6" x2="1385.6" y1="1881.6" y2="1945.6"/>
<line class="" x1="1353.6" x2="1353.6" y1="1881.6" y2="1945.6"/>
<line class="" x1="1161.6" x2="1161.6" y1="2009.6" y2="1817.6"/>
<line class="blocking" x1="1097.6" x2="969.6" y1="1817.6" y2="1817.6"/>
<line class="blocking" x1="969.6" x2="1097.6" y1="2009.6" y2="2009.6"/>
<line class="blocking" x1="905.6" x2="905.6" y1="1849.6" y2="1977.6"/>
<line class="special" x1="985.6" x2="1017.6" y1="1881.6" y2="1881.6"/>
<line class="special" x1="1017.6" x2="1033.6" y1="1881.6" y2="1897.6"/>
<line class="special" x1="1033.6" x2="1033.6" y1="1897.6" y2="1929.6"/>
<line class="special" x1="1033.6" x2="1017.6" y1="1929.6" y2="1945.6"/>
<line class="special" x1="1017.6" x2="985.6" y1="1945.6" y2="1945.6"/>
<line class="special" x1="985.6" x2="969.6" y1="1945.6" y2="1929.6"/>
<line class="special" x1="969.6" x2="969.6" y1="1929.6" y2="1897.6"/>
<line class="special" x1="969.6" x2="985.6" y1="1897.6" y2="1881.6"/>
<line class="" x1="1417.6" x2="1417.6" y1="1881.6" y2="1945.6"/>
<line class="" x1="1449.6" x2="1449.6" y1="1881.6" y2="1945.6"/>
<line class="" x1="4673.6" x2="4577.6" y1="1625.6" y2="1577.6"/>
<line class="" x1="4745.6" x2="4745.6" y1="1305.6" y2="1241.6"/>
<line class="" x1="4809.6" x2="4809.6" y1="1305.6" y2="1241.6"/>
<line class="" x1="969.6" x2="1097.6" y1="1801.6" y2="1801.6"/>
<line class="" x1="1097.6" x2="969.6" y1="2025.6" y2="2025.6"/>
<line class="" x1="889.6" x2="889.6" y1="1977.6" y2="1849.6"/>
</g>
<g class="support_lines">
<path class="sector sector-0" d="M2889.6,2585.6 L2777.6,2585.6 L2761.6,2585.6 L2697.6,2585.6 L2609.6,2553.6 L2569.6,2265.6 L2569.6,2041.6 L2601.6,2041.6 L2601.6,2201.6 L2697.6,2265.6 L3081.6,2265.6 L3145.6,2225.6 L3465.6,2225.6 L3497.6,2137.6 L3657.6,2033.6 L3961.6,2033.6 L3977.6,2033.6 L3977.6,2097.6 L3977.6,2233.6 L4105.6,2233.6 L4105.6,2265.6 L3977.6,2345.6 L3977.6,2361.6 L3849.6,2361.6 L3745.6,2457.6 L3721.6,2457.6 L3721.6,2393.6 L3425.6,2393.6 L3401.6,2393.6 L3401.6,2329.6 L2889.6,2329.6 L2825.6,2329.6 L2825.6,2393.6 L2825.6,2521.6 L2889.6,2521.6 L2889.6,2545.6 L2889.6,2585.6 M2777.6,2713.6 L2889.6,2713.6 L2889.6,2753.6 L2889.6,2777.6 L2825.6,2777.6 L2825.6,3033.6 L2825.6,3097.6 L2889.6,3097.6 L3721.6,3097.6 L3785.6,3097.6 L3785.6,3033.6 L3785.6,2649.6 L3721.6,2649.6 L3721.6,2625.6 L3721.6,2585.6 L3745.6,2585.6 L3977.6,2585.6 L4169.6,2489.6 L4185.6,2489.6 L4273.6,2265.6 L4273.6,2201.6 L4529.6,2105.6 L4545.6,2105.6 L4585.6,2265.6 L4809.6,2265.6 L5033.6,1881.6 L4905.6,1753.6 L4905.6,1593.6 L4969.6,1337.6 L4905.6,1241.6 L4809.6,1241.6 L4761.6,1241.6 L4745.6,1241.6 L4553.6,1177.6 L4529.6,1177.6 L4425.6,1177.6 L4425.6,1401.6 L4529.6,1401.6 L4553.6,1401.6 L4585.6,1497.6 L4577.6,1553.6 L4577.6,1577.6 L4489.6,1529.6 L4297.6,1497.6 L4297.6,1145.6 L4297.6,1129.6 L4297.6,1113.6 L4329.6,1017.6 L4329.6,985.6 L4353.6,985.6 L4385.6,985.6 L4425.6,1017.6 L4553.6,1017.6 L4553.6,601.6 L4297.6,601.6 L4297.6,537.6 L4265.6,537.6 L4265.6,513.6 L4265.6,497.6 L4265.6,473.6 L4329.6,473.6 L4329.6,281.6 L4137.6,281.6 L4137.6,345.6 L4137.6,409.6 L4137.6,473.6 L4201.6,473.6 L4201.6,497.6 L4201.6,513.6 L4201.6,537.6 L4169.6,537.6 L4169.6,601.6 L3913.6,601.6 L3913.6,1017.6 L4041.6,1017.6 L4081.6,985.6 L4113.6,985.6 L4137.6,985.6 L4137.6,1017.6 L4169.6,1113.6 L4169.6,1129.6 L4169.6,1145.6 L4169.6,1241.6 L4137.6,1241.6 L4105.6,1241.6 L4073.6,1241.6 L4041.6,1241.6 L4009.6,1241.6 L3977.6,1241.6 L3945.6,1241.6 L3913.6,1225.6 L3897.6,1225.6 L3593.6,1049.6 L3569.6,1049.6 L3489.6,1049.6 L3465.6,1049.6 L3337.6,1113.6 L3273.6,1225.6 L3273.6,1241.6 L3273.6,1273.6 L3273.6,1305.6 L3273.6,1337.6 L3273.6,1369.6 L3273.6,1441.6 L3273.6,1465.6 L3241.6,1465.6 L3209.6,1369.6 L2897.6,1401.6 L2753.6,1465.6 L2601.6,1497.6 L2601.6,1785.6 L2569.6,1785.6 L2569.6,1593.6 L2505.6,1593.6 L2377.6,1497.6 L2313.6,1497.6 L2313.6,1465.6 L2249.6,1465.6 L2249.6,1497.6 L2185.6,1497.6 L2057.6,1593.6 L1929.6,1593.6 L1929.6,1785.6 L1905.6,1785.6 L1737.6,1817.6 L1737.6,1841.6 L1721.6,1841.6 L1721.6,1817.6 L1673.6,1689.6 L1353.6,1689.6 L1289.6,1753.6 L1273.6,1753.6 L1161.6,1817.6 L1137.6,1817.6 L1097.6,1817.6 L1097.6,1801.6 L1129.6,1801.6 L1289.6,1625.6 L1289.6,1497.6 L585.6,1497.6 L457.6,1625.6 L457.6,2201.6 L585.6,2329.6 L1289.6,2329.6 L1289.6,2201.6 L1129.6,2025.6 L1097.6,2025.6 L1097.6,2009.6 L1137.6,2009.6 L1161.6,2009.6 L1273.6,2073.6 L1289.6,2073.6 L1353.6,2137.6 L1673.6,2137.6 L1721.6,2009.6 L1721.6,1985.6 L1737.6,1985.6 L1737.6,2009.6 L1905.6,2041.6 L1929.6,2041.6 L1929.6,2201.6 L2057.6,2201.6 L2193.6,2265.6 L2441.6,2265.6 L2473.6,2617.6 L2697.6,2713.6 L2761.6,2713.6 L2777.6,2713.6 M3337.6,2553.6 L3561.6,2553.6 L3561.6,2873.6 L3337.6,2873.6 L3337.6,2841.6 L3369.6,2841.6 L3401.6,2841.6 L3433.6,2841.6 L3529.6,2841.6 L3529.6,2585.6 L3433.6,2585.6 L3401.6,2585.6 L3369.6,2585.6 L3337.6,2585.6 L3337.6,2553.6 M4625.6,1993.6 L4697.6,1713.6 L4673.6,1625.6 L4697.6,1625.6 L4745.6,1561.6 L4745.6,1305.6 L4761.6,1305.6 L4809.6,1305.6 L4841.6,1369.6 L4777.6,1593.6 L4777.6,1753.6 L4873.6,1881.6 L4721.6,2113.6 L4681.6,2113.6 L4641.6,1993.6 L4625.6,1993.6 M4169.6,1497.6 L3977.6,1561.6 L3977.6,1785.6 L3961.6,1785.6 L3961.6,1497.6 L3713.6,1401.6 L3465.6,1369.6 L3433.6,1465.6 L3401.6,1465.6 L3401.6,1441.6 L3401.6,1369.6 L3401.6,1337.6 L3401.6,1305.6 L3401.6,1273.6 L3401.6,1241.6 L3401.6,1225.6 L3465.6,1177.6 L3489.6,1177.6 L3569.6,1177.6 L3593.6,1177.6 L3841.6,1353.6 L3857.6,1353.6 L3913.6,1369.6 L3977.6,1369.6 L4009.6,1369.6 L4041.6,1369.6 L4073.6,1369.6 L4105.6,1369.6 L4137.6,1369.6 L4169.6,1369.6 L4169.6,1497.6 M2121.6,1753.6 L2153.6,1753.6 L2153.6,1785.6 L2121.6,1785.6 L2121.6,1753.6 M2409.6,1753.6 L2441.6,1753.6 L2441.6,1785.6 L2409.6,1785.6 L2409.6,1753.6 M2121.6,2073.6 L2121.6,2041.6 L2153.6,2041.6 L2153.6,2073.6 L2121.6,2073.6 M2441.6,2073.6 L2409.6,2073.6 L2409.6,2041.6 L2441.6,2041.6 L2441.6,2073.6 M969.6,1817.6 L905.6,1849.6 L889.6,1849.6 L889.6,1801.6 L969.6,1801.6 L969.6,1817.6 M905.6,1977.6 L969.6,2009.6 L969.6,2025.6 L889.6,2025.6 L889.6,1977.6 L905.6,1977.6 M4385.6,793.6 L4353.6,793.6 L4329.6,793.6 L4329.6,761.6 L4385.6,761.6 L4385.6,793.6 M4137.6,793.6 L4113.6,793.6 L4081.6,793.6 L4081.6,761.6 L4137.6,761.6 L4137.6,793.6 M2601.6,1881.6 L2601.6,1945.6 L2569.6,1945.6 L2569.6,1881.6 L2601.6,1881.6" id="s-0"/>
</g>
</g>
<g transform="translate(0, 16896)">
<rect class="frame" height="3379.2000000000003" width="5491.199999999999"/>
<g>
<path class="sector sector-0" d="M2889.6,2585.6 L2777.6,2585.6 L2761.6,2585.6 L2697.6,2585.6 L2609.6,2553.6 L2569.6,2265.6 L2569.6,2041.6 L2601.6,2041.6 L2601.6,2201.6 L2697.6,2265.6 L3081.6,2265.6 L3145.6,2225.6 L3465.6,2225.6 L3497.6,2137.6 L3657.6,2033.6 L3961.6,2033.6 L3977.6,2033.6 L3977.6,2097.6 L3977.6,2233.6 L4105.6,2233.6 L4105.6,2265.6 L3977.6,2345.6 L3977.6,2361.6 L3849.6,2361.6 L3745.6,2457.6 L3721.6,2457.6 L3721.6,2393.6 L3425.6,2393.6 L3401.6,2393.6 L3401.6,2329.6 L2889.6,2329.6 L2825.6,2329.6 L2825.6,2393.6 L2825.6,2521.6 L2889.6,2521.6 L2889.6,2545.6 L2889.6,2585.6 M2777.6,2713.6 L2889.6,2713.6 L2889.6,2753.6 L2889.6,2777.6 L2825.6,2777.6 L2825.6,3033.6 L2825.6,3097.6 L2889.6,3097.6 L3721.6,3097.6 L3785.6,3097.6 L3785.6,3033.6 L3785.6,2649.6 L3721.6,2649.6 L3721.6,2625.6 L3721.6,2585.6 L3745.6,2585.6 L3977.6,2585.6 L4169.6,2489.6 L4185.6,2489.6 L4273.6,2265.6 L4273.6,2201.6 L4529.6,2105.6 L4545.6,2105.6 L4585.6,2265.6 L4809.6,2265.6 L5033.6,1881.6 L4905.6,1753.6 L4905.6,1593.6 L4969.6,1337.6 L4905.6,1241.6 L4809.6,1241.6 L4761.6,1241.6 L4745.6,1241.6 L4553.6,1177.6 L4529.6,1177.6 L4425.6,1177.6 L4425.6,1401.6 L4529.6,1401.6 L4553.6,1401.6 L4585.6,1497.6 L4577.6,1553.6 L4577.6,1577.6 L4489.6,1529.6 L4297.6,1497.6 L4297.6,1145.6 L4297.6,1129.6 L4297.6,1113.6 L4329.6,1017.6 L4329.6,985.6 L4353.6,985.6 L4385.6,985.6 L4425.6,1017.6 L4553.6,1017.6 L4553.6,601.6 L4297.6,601.6 L4297.6,537.6 L4265.6,537.6 L4265.6,513.6 L4265.6,497.6 L4265.6,473.6 L4329.6,473.6 L4329.6,281.6 L4137.6,281.6 L4137.6,345.6 L4137.6,409.6 L4137.6,473.6 L4201.6,473.6 L4201.6,497.6 L4201.6,513.6 L4201.6,537.6 L4169.6,537.6 L4169.6,601.6 L3913.6,601.6 L3913.6,1017.6 L4041.6,1017.6 L4081.6,985.6 L4113.6,985.6 L4137.6,985.6 L4137.6,1017.6 L4169.6,1113.6 L4169.6,1129.6 L4169.6,1145.6 L4169.6,1241.6 L4137.6,1241.6 L4105.6,1241.6 L4073.6,1241.6 L4041.6,1241.6 L4009.6,1241.6 L3977.6,1241.6 L3945.6,1241.6 L3913.6,1225.6 L3897.6,1225.6 L3593.6,1049.6 L3569.6,1049.6 L3489.6,1049.6 L3465.6,1049.6 L3337.6,1113.6 L3273.6,1225.6 L3273.6,1241.6 L3273.6,1273.6 L3273.6,1305.6 L3273.6,1337.6 L3273.6,1369.6 L3273.6,1441.6 L3273.6,1465.6 L3241.6,1465.6 L3209.6,1369.6 L2897.6,1401.6 L2753.6,1465.6 L2601.6,1497.6 L2601.6,1785.6 L2569.6,1785.6 L2569.6,1593.6 L2505.6,1593.6 L2377.6,1497.6 L2313.6,1497.6 L2313.6,1465.6 L2249.6,1465.6 L2249.6,1497.6 L2185.6,1497.6 L2057.6,1593.6 L1929.6,1593.6 L1929.6,1785.6 L1905.6,1785.6 L1737.6,1817.6 L1737.6,1841.6 L1721.6,1841.6 L1721.6,1817.6 L1673.6,1689.6 L1353.6,1689.6 L1289.6,1753.6 L1273.6,1753.6 L1161.6,1817.6 L1137.6,1817.6 L1097.6,1817.6 L1097.6,1801.6 L1129.6,1801.6 L1289.6,1625.6 L1289.6,1497.6 L585.6,1497.6 L457.6,1625.6 L457.6,2201.6 L585.6,2329.6 L1289.6,2329.6 L1289.6,2201.6 L1129.6,2025.6 L1097.6,2025.6 L1097.6,2009.6 L1137.6,2009.6 L1161.6,2009.6 L1273.6,2073.6 L1289.6,2073.6 L1353.6,2137.6 L1673.6,2137.6 L1721.6,2009.6 L1721.6,1985.6 L1737.6,1985.6 L1737.6,2009.6 L1905.6,2041.6 L1929.6,2041.6 L1929.6,2201.6 L2057.6,2201.6 L2193.6,2265.6 L2441.6,2265.6 L2473.6,2617.6 L2697.6,2713.6 L2761.6,2713.6 L2777.6,2713.6 M3337.6,2553.6 L3561.6,2553.6 L3561.6,2873.6 L3337.6,2873.6 L3337.6,2841.6 L3369.6,2841.6 L3401.6,2841.6 L3433.6,2841.6 L3529.6,2841.6 L3529.6,2585.6 L3433.6,2585.6 L3401.6,2585.6 L3369.6,2585.6 L3337.6,2585.6 L3337.6,2553.6 M4625.6,1993.6 L4697.6,1713.6 L4673.6,1625.6 L4697.6,1625.6 L4745.6,1561.6 L4745.6,1305.6 L4761.6,1305.6 L4809.6,1305.6 L4841.6,1369.6 L4777.6,1593.6 L4777.6,1753.6 L4873.6,1881.6 L4721.6,2113.6 L4681.6,2113.6 L4641.6,1993.6 L4625.6,1993.6 M4169.6,1497.6 L3977.6,1561.6 L3977.6,1785.6 L3961.6,1785.6 L3961.6,1497.6 L3713.6,1401.6 L3465.6,1369.6 L3433.6,1465.6 L3401.6,1465.6 L3401.6,1441.6 L3401.6,1369.6 L3401.6,1337.6 L3401.6,1305.6 L3401.6,1273.6 L3401.6,1241.6 L3401.6,1225.6 L3465.6,1177.6 L3489.6,1177.6 L3569.6,1177.6 L3593.6,1177.6 L3841.6,1353.6 L3857.6,1353.6 L3913.6,1369.6 L3977.6,1369.6 L4009.6,1369.6 L4041.6,1369.6 L4073.6,1369.6 L4105.6,1369.6 L4137.6,1369.6 L4169.6,1369.6 L4169.6,1497.6 M2121.6,1753.6 L2153.6,1753.6 L2153.6,1785.6 L2121.6,1785.6 L2121.6,1753.6 M2409.6,1753.6 L2441.6,1753.6 L2441.6,1785.6 L2409.6,1785.6 L2409.6,1753.6 M2121.6,2073.6 L2121.6,2041.6 L2153.6,2041.6 L2153.6,2073.6 L2121.6,2073.6 M2441.6,2073.6 L2409.6,2073.6 L2409.6,2041.6 L2441.6,2041.6 L2441.6,2073.6 M969.6,1817.6 L905.6,1849.6 L889.6,1849.6 L889.6,1801.6 L969.6,1801.6 L969.6,1817.6 M905.6,1977.6 L969.6,2009.6 L969.6,2025.6 L889.6,2025.6 L889.6,1977.6 L905.6,1977.6 M4385.6,793.6 L4353.6,793.6 L4329.6,793.6 L4329.6,761.6 L4385.6,761.6 L4385.6,793.6 M4137.6,793.6 L4113.6,793.6 L4081.6,793.6 L4081.6,761.6 L4137.6,761.6 L4137.6,793.6 M2601.6,1881.6 L2601.6,1945.6 L2569.6,1945.6 L2569.6,1881.6 L2601.6,1881.6" id="s-0"/>
</g>
</g>
</svg>