<svg viewBox="0 0 10 10" xmlns="http://www.w3.org/2000/svg">
<style>
line { stroke: black; stroke-width: 2; }

</style>
<rect fill="hsl(21,80%,50%)" height="1" width="1" x="0" y="0"/>
<rect fill="hsl(42,80%,50%)" height="1" width="1" x="1" y="0"/>
<rect fill="hsl(64,80%,50%)" height="1" width="1" x="2" y="0"/>
<rect fill="hsl(85,80%,50%)" height="1" width="1" x="3" y="0"/>
<rect fill="hsl(106,80%,50%)" height="1" width="1" x="4" y="0"/>
<rect fill="hsl(127,80%,50%)" height="1" width="1" x="5" y="0"/>
<rect fill="hsl(148,80%,50%)" height="1" width="1" x="6" y="0"/>
<rect fill="hsl(169,80%,50%)" height="1" width="1" x="7" y="0"/>
<rect fill="hsl(191,80%,50%)" height="1" width="1" x="8" y="0"/>
<rect fill="hsl(212,80%,50%)" height="1" width="1" x="9" y="0"/>
<rect fill="hsl(233,80%,50%)" height="1" width="1" x="0" y="1"/>
<rect fill="hsl(254,80%,50%)" height="1" width="1" x="1" y="1"/>
<rect fill="hsl(275,80%,50%)" height="1" width="1" x="2" y="1"/>
<rect fill="hsl(296,80%,50%)" height="1" width="1" x="3" y="1"/>
<rect fill="hsl(318,80%,50%)" height="1" width="1" x="4" y="1"/>
<rect fill="hsl(339,80%,50%)" height="1" width="1" x="5" y="1"/>
<rect fill="hsl(1,80%,50%)" height="1" width="1" x="6" y="1"/>
<rect fill="hsl(22,80%,50%)" height="1" width="1" x="7" y="1"/>
<rect fill="hsl(44,80%,50%)" height="1" width="1" x="8" y="1"/>
<rect fill="hsl(65,80%,50%)" height="1" width="1" x="9" y="1"/>
<rect fill="hsl(86,80%,50%)" height="1" width="1" x="0" y="2"/>
<rect fill="hsl(107,80%,50%)" height="1" width="1" x="1" y="2"/>
<rect fill="hsl(128,80%,50%)" height="1" width="1" x="2" y="2"/>
<rect fill="hsl(149,80%,50%)" height="1" width="1" x="3" y="2"/>
<rect fill="hsl(171,80%,50%)" height="1" width="1" x="4" y="2"/>
<rect fill="hsl(192,80%,50%)" height="1" width="1" x="5" y="2"/>
<rect fill="hsl(213,80%,50%)" height="1" width="1" x="6" y="2"/>
<rect fill="hsl(234,80%,50%)" height="1" width="1" x="7" y="2"/>
<rect fill="hsl(255,80%,50%)" height="1" width="1" x="8" y="2"/>
<rect fill="hsl(277,80%,50%)" height="1" width="1" x="9" y="2"/>
<rect fill="hsl(298,80%,50%)" height="1" width="1" x="0" y="3"/>
<rect fill="hsl(319,80%,50%)" height="1" width="1" x="1" y="3"/>
<rect fill="hsl(340,80%,50%)" height="1" width="1" x="2" y="3"/>
<rect fill="hsl(2,80%,50%)" height="1" width="1" x="3" y="3"/>
<rect fill="hsl(24,80%,50%)" height="1" width="1" x="4" y="3"/>
<rect fill="hsl(45,80%,50%)" height="1" width="1" x="5" y="3"/>
<rect fill="hsl(66,80%,50%)" height="1" width="1" x="6" y="3"/>
<rect fill="hsl(87,80%,50%)" height="1" width="1" x="7" y="3"/>
<rect fill="hsl(108,80%,50%)" height="1" width="1" x="8" y="3"/>
<rect fill="hsl(130,80%,50%)" height="1" width="1" x="9" y="3"/>
<rect fill="hsl(151,80%,50%)" height="1" width="1" x="0" y="4"/>
<rect fill="hsl(172,80%,50%)" height="1" width="1" x="1" y="4"/>
<rect fill="hsl(193,80%,50%)" height="1" width="1" x="2" y="4"/>
<rect fill="hsl(214,80%,50%)" height="1" width="1" x="3" y="4"/>
<rect fill="hsl(235,80%,50%)" height="1" width="1" x="4" y="4"/>
<rect fill="hsl(257,80%,50%)" height="1" width="1" x="5" y="4"/>
<rect fill="hsl(278,80%,50%)" height="1" width="1" x="6" y="4"/>
<rect fill="hsl(299,80%,50%)" height="1" width="1" x="7" y="4"/>
<rect fill="hsl(320,80%,50%)" height="1" width="1" x="8" y="4"/>
<rect fill="hsl(341,80%,50%)" height="1" width="1" x="9" y="4"/>
<rect fill="hsl(4,80%,50%)" height="1" width="1" x="0" y="5"/>
<rect fill="hsl(25,80%,50%)" height="1" width="1" x="1" y="5"/>
<rect fill="hsl(46,80%,50%)" height="1" width="1" x="2" y="5"/>
<rect fill="hsl(67,80%,50%)" height="1" width="1" x="3" y="5"/>
<rect fill="hsl(88,80%,50%)" height="1" width="1" x="4" y="5"/>
<rect fill="hsl(110,80%,50%)" height="1" width="1" x="5" y="5"/>
<rect fill="hsl(131,80%,50%)" height="1" width="1" x="6" y="5"/>
<rect fill="hsl(152,80%,50%)" height="1" width="1" x="7" y="5"/>
<rect fill="hsl(173,80%,50%)" height="1" width="1" x="8" y="5"/>
<rect fill="hsl(194,80%,50%)" height="1" width="1" x="9" y="5"/>
<rect fill="hsl(216,80%,50%)" height="1" width="1" x="0" y="6"/>
<rect fill="hsl(237,80%,50%)" height="1" width="1" x="1" y="6"/>
<rect fill="hsl(258,80%,50%)" height="1" width="1" x="2" y="6"/>
<rect fill="hsl(279,80%,50%)" height="1" width="1" x="3" y="6"/>
<rect fill="hsl(300,80%,50%)" height="1" width="1" x="4" y="6"/>
<rect fill="hsl(321,80%,50%)" height="1" width="1" x="5" y="6"/>
<rect fill="hsl(343,80%,50%)" height="1" width="1" x="6" y="6"/>
<rect fill="hsl(5,80%,50%)" height="1" width="1" x="7" y="6"/>
<rect fill="hsl(26,80%,50%)" height="1" width="1" x="8" y="6"/>
<rect fill="hsl(47,80%,50%)" height="1" width="1" x="9" y="6"/>
<rect fill="hsl(69,80%,50%)" height="1" width="1" x="0" y="7"/>
<rect fill="hsl(90,80%,50%)" height="1" width="1" x="1" y="7"/>
<rect fill="hsl(111,80%,50%)" height="1" width="1" x="2" y="7"/>
<rect fill="hsl(132,80%,50%)" height="1" width="1" x="3" y="7"/>
<rect fill="hsl(153,80%,50%)" height="1" width="1" x="4" y="7"/>
<rect fill="hsl(174,80%,50%)" height="1" width="1" x="5" y="7"/>
<rect fill="hsl(196,80%,50%)" height="1" width="1" x="6" y="7"/>
<rect fill="hsl(217,80%,50%)" height="1" width="1" x="7" y="7"/>
<rect fill="hsl(238,80%,50%)" height="1" width="1" x="8" y="7"/>
<rect fill="hsl(259,80%,50%)" height="1" width="1" x="9" y="7"/>
<rect fill="hsl(280,80%,50%)" height="1" width="1" x="0" y="8"/>
<rect fill="hsl(301,80%,50%)" height="1" width="1" x="1" y="8"/>
<rect fill="hsl(323,80%,50%)" height="1" width="1" x="2" y="8"/>
<rect fill="hsl(344,80%,50%)" height="1" width="1" x="3" y="8"/>
<rect fill="hsl(6,80%,50%)" height="1" width="1" x="4" y="8"/>
<rect fill="hsl(27,80%,50%)" height="1" width="1" x="5" y="8"/>
<rect fill="hsl(49,80%,50%)" height="1" width="1" x="6" y="8"/>
<rect fill="hsl(70,80%,50%)" height="1" width="1" x="7" y="8"/>
<rect fill="hsl(91,80%,50%)" height="1" width="1" x="8" y="8"/>
<rect fill="hsl(112,80%,50%)" height="1" width="1" x="9" y="8"/>
<rect fill="hsl(133,80%,50%)" height="1" width="1" x="0" y="9"/>
<rect fill="hsl(154,80%,50%)" height="1" width="1" x="1" y="9"/>
<rect fill="hsl(176,80%,50%)" height="1" width="1" x="2" y="9"/>
<rect fill="hsl(197,80%,50%)" height="1" width="1" x="3" y="9"/>
<rect fill="hsl(218,80%,50%)" height="1" width="1" x="4" y="9"/>
<rect fill="hsl(239,80%,50%)" height="1" width="1" x="5" y="9"/>
<rect fill="hsl(260,80%,50%)" height="1" width="1" x="6" y="9"/>
<rect fill="hsl(282,80%,50%)" height="1" width="1" x="7" y="9"/>
<rect fill="hsl(303,80%,50%)" height="1" width="1" x="8" y="9"/>
<rect fill="hsl(324,80%,50%)" height="1" width="1" x="9" y="9"/>
</svg>