<svg viewBox="0 0 10 10" xmlns="http://www.w3.org/2000/svg">
<style>
line { stroke: black; stroke-width: 2; }

</style>
<rect fill="hsl(32,80%,50%)" height="1" width="1" x="0" y="0"/>
<rect fill="hsl(64,80%,50%)" height="1" width="1" x="1" y="0"/>
<rect fill="hsl(95,80%,50%)" height="1" width="1" x="2" y="0"/>
<rect fill="hsl(127,80%,50%)" height="1" width="1" x="3" y="0"/>
<rect fill="hsl(159,80%,50%)" height="1" width="1" x="4" y="0"/>
<rect fill="hsl(191,80%,50%)" height="1" width="1" x="5" y="0"/>
<rect fill="hsl(222,80%,50%)" height="1" width="1" x="6" y="0"/>
<rect fill="hsl(254,80%,50%)" height="1" width="1" x="7" y="0"/>
<rect fill="hsl(286,80%,50%)" height="1" width="1" x="8" y="0"/>
<rect fill="hsl(318,80%,50%)" height="1" width="1" x="9" y="0"/>
<rect fill="hsl(349,80%,50%)" height="1" width="1" x="0" y="1"/>
<rect fill="hsl(21,80%,50%)" height="1" width="1" x="1" y="1"/>
<rect fill="hsl(53,80%,50%)" height="1" width="1" x="2" y="1"/>
<rect fill="hsl(85,80%,50%)" height="1" width="1" x="3" y="1"/>
<rect fill="hsl(116,80%,50%)" height="1" width="1" x="4" y="1"/>
<rect fill="hsl(148,80%,50%)" height="1" width="1" x="5" y="1"/>
<rect fill="hsl(2,80%,50%)" height="1" width="1" x="6" y="1"/>
<rect fill="hsl(34,80%,50%)" height="1" width="1" x="7" y="1"/>
<rect fill="hsl(65,80%,50%)" height="1" width="1" x="8" y="1"/>
<rect fill="hsl(97,80%,50%)" height="1" width="1" x="9" y="1"/>
<rect fill="hsl(129,80%,50%)" height="1" width="1" x="0" y="2"/>
<rect fill="hsl(161,80%,50%)" height="1" width="1" x="1" y="2"/>
<rect fill="hsl(192,80%,50%)" height="1" width="1" x="2" y="2"/>
<rect fill="hsl(224,80%,50%)" height="1" width="1" x="3" y="2"/>
<rect fill="hsl(256,80%,50%)" height="1" width="1" x="4" y="2"/>
<rect fill="hsl(288,80%,50%)" height="1" width="1" x="5" y="2"/>
<rect fill="hsl(320,80%,50%)" height="1" width="1" x="6" y="2"/>
<rect fill="hsl(351,80%,50%)" height="1" width="1" x="7" y="2"/>
<rect fill="hsl(23,80%,50%)" height="1" width="1" x="8" y="2"/>
<rect fill="hsl(55,80%,50%)" height="1" width="1" x="9" y="2"/>
<rect fill="hsl(87,80%,50%)" height="1" width="1" x="0" y="3"/>
<rect fill="hsl(118,80%,50%)" height="1" width="1" x="1" y="3"/>
<rect fill="hsl(150,80%,50%)" height="1" width="1" x="2" y="3"/>
<rect fill="hsl(4,80%,50%)" height="1" width="1" x="3" y="3"/>
<rect fill="hsl(36,80%,50%)" height="1" width="1" x="4" y="3"/>
<rect fill="hsl(67,80%,50%)" height="1" width="1" x="5" y="3"/>
<rect fill="hsl(99,80%,50%)" height="1" width="1" x="6" y="3"/>
<rect fill="hsl(131,80%,50%)" height="1" width="1" x="7" y="3"/>
<rect fill="hsl(163,80%,50%)" height="1" width="1" x="8" y="3"/>
<rect fill="hsl(194,80%,50%)" height="1" width="1" x="9" y="3"/>
<rect fill="hsl(226,80%,50%)" height="1" width="1" x="0" y="4"/>
<rect fill="hsl(258,80%,50%)" height="1" width="1" x="1" y="4"/>
<rect fill="hsl(290,80%,50%)" height="1" width="1" x="2" y="4"/>
<rect fill="hsl(321,80%,50%)" height="1" width="1" x="3" y="4"/>
<rect fill="hsl(353,80%,50%)" height="1" width="1" x="4" y="4"/>
<rect fill="hsl(25,80%,50%)" height="1" width="1" x="5" y="4"/>
<rect fill="hsl(57,80%,50%)" height="1" width="1" x="6" y="4"/>
<rect fill="hsl(88,80%,50%)" height="1" width="1" x="7" y="4"/>
<rect fill="hsl(120,80%,50%)" height="1" width="1" x="8" y="4"/>
<rect fill="hsl(152,80%,50%)" height="1" width="1" x="9" y="4"/>
<rect fill="hsl(6,80%,50%)" height="1" width="1" x="0" y="5"/>
<rect fill="hsl(37,80%,50%)" height="1" width="1" x="1" y="5"/>
<rect fill="hsl(69,80%,50%)" height="1" width="1" x="2" y="5"/>
<rect fill="hsl(101,80%,50%)" height="1" width="1" x="3" y="5"/>
<rect fill="hsl(133,80%,50%)" height="1" width="1" x="4" y="5"/>
<rect fill="hsl(164,80%,50%)" height="1" width="1" x="5" y="5"/>
<rect fill="hsl(196,80%,50%)" height="1" width="1" x="6" y="5"/>
<rect fill="hsl(228,80%,50%)" height="1" width="1" x="7" y="5"/>
<rect fill="hsl(260,80%,50%)" height="1" width="1" x="8" y="5"/>
<rect fill="hsl(291,80%,50%)" height="1" width="1" x="9" y="5"/>
<rect fill="hsl(323,80%,50%)" height="1" width="1" x="0" y="6"/>
<rect fill="hsl(355,80%,50%)" height="1" width="1" x="1" y="6"/>
<rect fill="hsl(27,80%,50%)" height="1" width="1" x="2" y="6"/>
<rect fill="hsl(59,80%,50%)" height="1" width="1" x="3" y="6"/>
<rect fill="hsl(90,80%,50%)" height="1" width="1" x="4" y="6"/>
<rect fill="hsl(122,80%,50%)" height="1" width="1" x="5" y="6"/>
<rect fill="hsl(154,80%,50%)" height="1" width="1" x="6" y="6"/>
<rect fill="hsl(7,80%,50%)" height="1" width="1" x="7" y="6"/>
<rect fill="hsl(39,80%,50%)" height="1" width="1" x="8" y="6"/>
<rect fill="hsl(71,80%,50%)" height="1" width="1" x="9" y="6"/>
<rect fill="hsl(103,80%,50%)" height="1" width="1" x="0" y="7"/>
<rect fill="hsl(135,80%,50%)" height="1" width="1" x="1" y="7"/>
<rect fill="hsl(166,80%,50%)" height="1" width="1" x="2" y="7"/>
<rect fill="hsl(198,80%,50%)" height="1" width="1" x="3" y="7"/>
<rect fill="hsl(230,80%,50%)" height="1" width="1" x="4" y="7"/>
<rect fill="hsl(262,80%,50%)" height="1" width="1" x="5" y="7"/>
<rect fill="hsl(293,80%,50%)" height="1" width="1" x="6" y="7"/>
<rect fill="hsl(325,80%,50%)" height="1" width="1" x="7" y="7"/>
<rect fill="hsl(357,80%,50%)" height="1" width="1" x="8" y="7"/>
<rect fill="hsl(29,80%,50%)" height="1" width="1" x="9" y="7"/>
<rect fill="hsl(60,80%,50%)" height="1" width="1" x="0" y="8"/>
<rect fill="hsl(92,80%,50%)" height="1" width="1" x="1" y="8"/>
<rect fill="hsl(124,80%,50%)" height="1" width="1" x="2" y="8"/>
<rect fill="hsl(156,80%,50%)" height="1" width="1" x="3" y="8"/>
<rect fill="hsl(9,80%,50%)" height="1" width="1" x="4" y="8"/>
<rect fill="hsl(41,80%,50%)" height="1" width="1" x="5" y="8"/>
<rect fill="hsl(73,80%,50%)" height="1" width="1" x="6" y="8"/>
<rect fill="hsl(105,80%,50%)" height="1" width="1" x="7" y="8"/>
<rect fill="hsl(136,80%,50%)" height="1" width="1" x="8" y="8"/>
<rect fill="hsl(168,80%,50%)" height="1" width="1" x="9" y="8"/>
<rect fill="hsl(200,80%,50%)" height="1" width="1" x="0" y="9"/>
<rect fill="hsl(232,80%,50%)" height="1" width="1" x="1" y="9"/>
<rect fill="hsl(263,80%,50%)" height="1" width="1" x="2" y="9"/>
<rect fill="hsl(295,80%,50%)" height="1" width="1" x="3" y="9"/>
<rect fill="hsl(327,80%,50%)" height="1" width="1" x="4" y="9"/>
<rect fill="hsl(359,80%,50%)" height="1" width="1" x="5" y="9"/>
<rect fill="hsl(31,80%,50%)" height="1" width="1" x="6" y="9"/>
<rect fill="hsl(62,80%,50%)" height="1" width="1" x="7" y="9"/>
<rect fill="hsl(94,80%,50%)" height="1" width="1" x="8" y="9"/>
<rect fill="hsl(126,80%,50%)" height="1" width="1" x="9" y="9"/>
</svg>