<svg viewBox="0 0 10 10" xmlns="http://www.w3.org/2000/svg">
<style>
line { stroke: black; stroke-width: 2; }

</style>
<rect fill="hsl(33,80%,50%)" height="1" width="1" x="0" y="0"/>
<rect fill="hsl(65,80%,50%)" height="1" width="1" x="1" y="0"/>
<rect fill="hsl(98,80%,50%)" height="1" width="1" x="2" y="0"/>
<rect fill="hsl(131,80%,50%)" height="1" width="1" x="3" y="0"/>
<rect fill="hsl(164,80%,50%)" height="1" width="1" x="4" y="0"/>
<rect fill="hsl(196,80%,50%)" height="1" width="1" x="5" y="0"/>
<rect fill="hsl(229,80%,50%)" height="1" width="1" x="6" y="0"/>
<rect fill="hsl(262,80%,50%)" height="1" width="1" x="7" y="0"/>
<rect fill="hsl(295,80%,50%)" height="1" width="1" x="8" y="0"/>
<rect fill="hsl(327,80%,50%)" height="1" width="1" x="9" y="0"/>
<rect fill="hsl(3,80%,50%)" height="1" width="1" x="0" y="1"/>
<rect fill="hsl(36,80%,50%)" height="1" width="1" x="1" y="1"/>
<rect fill="hsl(68,80%,50%)" height="1" width="1" x="2" y="1"/>
<rect fill="hsl(101,80%,50%)" height="1" width="1" x="3" y="1"/>
<rect fill="hsl(134,80%,50%)" height="1" width="1" x="4" y="1"/>
<rect fill="hsl(167,80%,50%)" height="1" width="1" x="5" y="1"/>
<rect fill="hsl(199,80%,50%)" height="1" width="1" x="6" y="1"/>
<rect fill="hsl(232,80%,50%)" height="1" width="1" x="7" y="1"/>
<rect fill="hsl(265,80%,50%)" height="1" width="1" x="8" y="1"/>
<rect fill="hsl(298,80%,50%)" height="1" width="1" x="9" y="1"/>
<rect fill="hsl(330,80%,50%)" height="1" width="1" x="0" y="2"/>
<rect fill="hsl(6,80%,50%)" height="1" width="1" x="1" y="2"/>
<rect fill="hsl(39,80%,50%)" height="1" width="1" x="2" y="2"/>
<rect fill="hsl(71,80%,50%)" height="1" width="1" x="3" y="2"/>
<rect fill="hsl(104,80%,50%)" height="1" width="1" x="4" y="2"/>
<rect fill="hsl(137,80%,50%)" height="1" width="1" x="5" y="2"/>
<rect fill="hsl(170,80%,50%)" height="1" width="1" x="6" y="2"/>
<rect fill="hsl(202,80%,50%)" height="1" width="1" x="7" y="2"/>
<rect fill="hsl(235,80%,50%)" height="1" width="1" x="8" y="2"/>
<rect fill="hsl(268,80%,50%)" height="1" width="1" x="9" y="2"/>
<rect fill="hsl(300,80%,50%)" height="1" width="1" x="0" y="3"/>
<rect fill="hsl(333,80%,50%)" height="1" width="1" x="1" y="3"/>
<rect fill="hsl(9,80%,50%)" height="1" width="1" x="2" y="3"/>
<rect fill="hsl(42,80%,50%)" height="1" width="1" x="3" y="3"/>
<rect fill="hsl(74,80%,50%)" height="1" width="1" x="4" y="3"/>
<rect fill="hsl(107,80%,50%)" height="1" width="1" x="5" y="3"/>
<rect fill="hsl(140,80%,50%)" height="1" width="1" x="6" y="3"/>
<rect fill="hsl(173,80%,50%)" height="1" width="1" x="7" y="3"/>
<rect fill="hsl(205,80%,50%)" height="1" width="1" x="8" y="3"/>
<rect fill="hsl(238,80%,50%)" height="1" width="1" x="9" y="3"/>
<rect fill="hsl(271,80%,50%)" height="1" width="1" x="0" y="4"/>
<rect fill="hsl(303,80%,50%)" height="1" width="1" x="1" y="4"/>
<rect fill="hsl(336,80%,50%)" height="1" width="1" x="2" y="4"/>
<rect fill="hsl(12,80%,50%)" height="1" width="1" x="3" y="4"/>
<rect fill="hsl(45,80%,50%)" height="1" width="1" x="4" y="4"/>
<rect fill="hsl(77,80%,50%)" height="1" width="1" x="5" y="4"/>
<rect fill="hsl(110,80%,50%)" height="1" width="1" x="6" y="4"/>
<rect fill="hsl(143,80%,50%)" height="1" width="1" x="7" y="4"/>
<rect fill="hsl(176,80%,50%)" height="1" width="1" x="8" y="4"/>
<rect fill="hsl(208,80%,50%)" height="1" width="1" x="9" y="4"/>
<rect fill="hsl(241,80%,50%)" height="1" width="1" x="0" y="5"/>
<rect fill="hsl(274,80%,50%)" height="1" width="1" x="1" y="5"/>
<rect fill="hsl(306,80%,50%)" height="1" width="1" x="2" y="5"/>
<rect fill="hsl(339,80%,50%)" height="1" width="1" x="3" y="5"/>
<rect fill="hsl(15,80%,50%)" height="1" width="1" x="4" y="5"/>
<rect fill="hsl(48,80%,50%)" height="1" width="1" x="5" y="5"/>
<rect fill="hsl(80,80%,50%)" height="1" width="1" x="6" y="5"/>
<rect fill="hsl(113,80%,50%)" height="1" width="1" x="7" y="5"/>
<rect fill="hsl(146,80%,50%)" height="1" width="1" x="8" y="5"/>
<rect fill="hsl(179,80%,50%)" height="1" width="1" x="9" y="5"/>
<rect fill="hsl(211,80%,50%)" height="1" width="1" x="0" y="6"/>
<rect fill="hsl(244,80%,50%)" height="1" width="1" x="1" y="6"/>
<rect fill="hsl(277,80%,50%)" height="1" width="1" x="2" y="6"/>
<rect fill="hsl(309,80%,50%)" height="1" width="1" x="3" y="6"/>
<rect fill="hsl(342,80%,50%)" height="1" width="1" x="4" y="6"/>
<rect fill="hsl(18,80%,50%)" height="1" width="1" x="5" y="6"/>
<rect fill="hsl(51,80%,50%)" height="1" width="1" x="6" y="6"/>
<rect fill="hsl(83,80%,50%)" height="1" width="1" x="7" y="6"/>
<rect fill="hsl(116,80%,50%)" height="1" width="1" x="8" y="6"/>
<rect fill="hsl(149,80%,50%)" height="1" width="1" x="9" y="6"/>
<rect fill="hsl(181,80%,50%)" height="1" width="1" x="0" y="7"/>
<rect fill="hsl(214,80%,50%)" height="1" width="1" x="1" y="7"/>
<rect fill="hsl(247,80%,50%)" height="1" width="1" x="2" y="7"/>
<rect fill="hsl(280,80%,50%)" height="1" width="1" x="3" y="7"/>
<rect fill="hsl(312,80%,50%)" height="1" width="1" x="4" y="7"/>
<rect fill="hsl(345,80%,50%)" height="1" width="1" x="5" y="7"/>
<rect fill="hsl(21,80%,50%)" height="1" width="1" x="6" y="7"/>
<rect fill="hsl(54,80%,50%)" height="1" width="1" x="7" y="7"/>
<rect fill="hsl(86,80%,50%)" height="1" width="1" x="8" y="7"/>
<rect fill="hsl(119,80%,50%)" height="1" width="1" x="9" y="7"/>
<rect fill="hsl(152,80%,50%)" height="1" width="1" x="0" y="8"/>
<rect fill="hsl(184,80%,50%)" height="1" width="1" x="1" y="8"/>
<rect fill="hsl(217,80%,50%)" height="1" width="1" x="2" y="8"/>
<rect fill="hsl(250,80%,50%)" height="1" width="1" x="3" y="8"/>
<rect fill="hsl(283,80%,50%)" height="1" width="1" x="4" y="8"/>
<rect fill="hsl(315,80%,50%)" height="1" width="1" x="5" y="8"/>
<rect fill="hsl(348,80%,50%)" height="1" width="1" x="6" y="8"/>
<rect fill="hsl(24,80%,50%)" height="1" width="1" x="7" y="8"/>
<rect fill="hsl(57,80%,50%)" height="1" width="1" x="8" y="8"/>
<rect fill="hsl(89,80%,50%)" height="1" width="1" x="9" y="8"/>
<rect fill="hsl(122,80%,50%)" height="1" width="1" x="0" y="9"/>
<rect fill="hsl(155,80%,50%)" height="1" width="1" x="1" y="9"/>
<rect fill="hsl(187,80%,50%)" height="1" width="1" x="2" y="9"/>
<rect fill="hsl(220,80%,50%)" height="1" width="1" x="3" y="9"/>
<rect fill="hsl(253,80%,50%)" height="1" width="1" x="4" y="9"/>
<rect fill="hsl(286,80%,50%)" height="1" width="1" x="5" y="9"/>
<rect fill="hsl(318,80%,50%)" height="1" width="1" x="6" y="9"/>
<rect fill="hsl(351,80%,50%)" height="1" width="1" x="7" y="9"/>
<rect fill="hsl(27,80%,50%)" height="1" width="1" x="8" y="9"/>
<rect fill="hsl(60,80%,50%)" height="1" width="1" x="9" y="9"/>
</svg>