<svg viewBox="0 0 10 10" xmlns="http://www.w3.org/2000/svg">
<style>
line { stroke: black; stroke-width: 2; }

</style>
<rect fill="hsl(49,80%,50%)" height="1" width="1" x="0" y="0"/>
<rect fill="hsl(98,80%,50%)" height="1" width="1" x="1" y="0"/>
<rect fill="hsl(147,80%,50%)" height="1" width="1" x="2" y="0"/>
<rect fill="hsl(196,80%,50%)" height="1" width="1" x="3" y="0"/>
<rect fill="hsl(245,80%,50%)" height="1" width="1" x="4" y="0"/>
<rect fill="hsl(295,80%,50%)" height="1" width="1" x="5" y="0"/>
<rect fill="hsl(344,80%,50%)" height="1" width="1" x="6" y="0"/>
<rect fill="hsl(33,80%,50%)" height="1" width="1" x="7" y="0"/>
<rect fill="hsl(82,80%,50%)" height="1" width="1" x="8" y="0"/>
<rect fill="hsl(131,80%,50%)" height="1" width="1" x="9" y="0"/>
<rect fill="hsl(4,80%,50%)" height="1" width="1" x="0" y="1"/>
<rect fill="hsl(54,80%,50%)" height="1" width="1" x="1" y="1"/>
<rect fill="hsl(103,80%,50%)" height="1" width="1" x="2" y="1"/>
<rect fill="hsl(152,80%,50%)" height="1" width="1" x="3" y="1"/>
<rect fill="hsl(201,80%,50%)" height="1" width="1" x="4" y="1"/>
<rect fill="hsl(250,80%,50%)" height="1" width="1" x="5" y="1"/>
<rect fill="hsl(299,80%,50%)" height="1" width="1" x="6" y="1"/>
<rect fill="hsl(348,80%,50%)" height="1" width="1" x="7" y="1"/>
<rect fill="hsl(37,80%,50%)" height="1" width="1" x="8" y="1"/>
<rect fill="hsl(86,80%,50%)" height="1" width="1" x="9" y="1"/>
<rect fill="hsl(135,80%,50%)" height="1" width="1" x="0" y="2"/>
<rect fill="hsl(9,80%,50%)" height="1" width="1" x="1" y="2"/>
<rect fill="hsl(58,80%,50%)" height="1" width="1" x="2" y="2"/>
<rect fill="hsl(107,80%,50%)" height="1" width="1" x="3" y="2"/>
<rect fill="hsl(156,80%,50%)" height="1" width="1" x="4" y="2"/>
<rect fill="hsl(205,80%,50%)" height="1" width="1" x="5" y="2"/>
<rect fill="hsl(254,80%,50%)" height="1" width="1" x="6" y="2"/>
<rect fill="hsl(303,80%,50%)" height="1" width="1" x="7" y="2"/>
<rect fill="hsl(353,80%,50%)" height="1" width="1" x="8" y="2"/>
<rect fill="hsl(42,80%,50%)" height="1" width="1" x="9" y="2"/>
<rect fill="hsl(91,80%,50%)" height="1" width="1" x="0" y="3"/>
<rect fill="hsl(140,80%,50%)" height="1" width="1" x="1" y="3"/>
<rect fill="hsl(13,80%,50%)" height="1" width="1" x="2" y="3"/>
<rect fill="hsl(62,80%,50%)" height="1" width="1" x="3" y="3"/>
<rect fill="hsl(112,80%,50%)" height="1" width="1" x="4" y="3"/>
<rect fill="hsl(161,80%,50%)" height="1" width="1" x="5" y="3"/>
<rect fill="hsl(210,80%,50%)" height="1" width="1" x="6" y="3"/>
<rect fill="hsl(259,80%,50%)" height="1" width="1" x="7" y="3"/>
<rect fill="hsl(308,80%,50%)" height="1" width="1" x="8" y="3"/>
<rect fill="hsl(357,80%,50%)" height="1" width="1" x="9" y="3"/>
<rect fill="hsl(46,80%,50%)" height="1" width="1" x="0" y="4"/>
<rect fill="hsl(95,80%,50%)" height="1" width="1" x="1" y="4"/>
<rect fill="hsl(144,80%,50%)" height="1" width="1" x="2" y="4"/>
<rect fill="hsl(18,80%,50%)" height="1" width="1" x="3" y="4"/>
<rect fill="hsl(67,80%,50%)" height="1" width="1" x="4" y="4"/>
<rect fill="hsl(116,80%,50%)" height="1" width="1" x="5" y="4"/>
<rect fill="hsl(165,80%,50%)" height="1" width="1" x="6" y="4"/>
<rect fill="hsl(214,80%,50%)" height="1" width="1" x="7" y="4"/>
<rect fill="hsl(263,80%,50%)" height="1" width="1" x="8" y="4"/>
<rect fill="hsl(312,80%,50%)" height="1" width="1" x="9" y="4"/>
<rect fill="hsl(1,80%,50%)" height="1" width="1" x="0" y="5"/>
<rect fill="hsl(51,80%,50%)" height="1" width="1" x="1" y="5"/>
<rect fill="hsl(100,80%,50%)" height="1" width="1" x="2" y="5"/>
<rect fill="hsl(149,80%,50%)" height="1" width="1" x="3" y="5"/>
<rect fill="hsl(22,80%,50%)" height="1" width="1" x="4" y="5"/>
<rect fill="hsl(71,80%,50%)" height="1" width="1" x="5" y="5"/>
<rect fill="hsl(120,80%,50%)" height="1" width="1" x="6" y="5"/>
<rect fill="hsl(170,80%,50%)" height="1" width="1" x="7" y="5"/>
<rect fill="hsl(219,80%,50%)" height="1" width="1" x="8" y="5"/>
<rect fill="hsl(268,80%,50%)" height="1" width="1" x="9" y="5"/>
<rect fill="hsl(317,80%,50%)" height="1" width="1" x="0" y="6"/>
<rect fill="hsl(6,80%,50%)" height="1" width="1" x="1" y="6"/>
<rect fill="hsl(55,80%,50%)" height="1" width="1" x="2" y="6"/>
<rect fill="hsl(104,80%,50%)" height="1" width="1" x="3" y="6"/>
<rect fill="hsl(153,80%,50%)" height="1" width="1" x="4" y="6"/>
<rect fill="hsl(27,80%,50%)" height="1" width="1" x="5" y="6"/>
<rect fill="hsl(76,80%,50%)" height="1" width="1" x="6" y="6"/>
<rect fill="hsl(125,80%,50%)" height="1" width="1" x="7" y="6"/>
<rect fill="hsl(174,80%,50%)" height="1" width="1" x="8" y="6"/>
<rect fill="hsl(223,80%,50%)" height="1" width="1" x="9" y="6"/>
<rect fill="hsl(272,80%,50%)" height="1" width="1" x="0" y="7"/>
<rect fill="hsl(321,80%,50%)" height="1" width="1" x="1" y="7"/>
<rect fill="hsl(10,80%,50%)" height="1" width="1" x="2" y="7"/>
<rect fill="hsl(60,80%,50%)" height="1" width="1" x="3" y="7"/>
<rect fill="hsl(109,80%,50%)" height="1" width="1" x="4" y="7"/>
<rect fill="hsl(158,80%,50%)" height="1" width="1" x="5" y="7"/>
<rect fill="hsl(31,80%,50%)" height="1" width="1" x="6" y="7"/>
<rect fill="hsl(80,80%,50%)" height="1" width="1" x="7" y="7"/>
<rect fill="hsl(129,80%,50%)" height="1" width="1" x="8" y="7"/>
<rect fill="hsl(179,80%,50%)" height="1" width="1" x="9" y="7"/>
<rect fill="hsl(228,80%,50%)" height="1" width="1" x="0" y="8"/>
<rect fill="hsl(277,80%,50%)" height="1" width="1" x="1" y="8"/>
<rect fill="hsl(326,80%,50%)" height="1" width="1" x="2" y="8"/>
<rect fill="hsl(15,80%,50%)" height="1" width="1" x="3" y="8"/>
<rect fill="hsl(64,80%,50%)" height="1" width="1" x="4" y="8"/>
<rect fill="hsl(113,80%,50%)" height="1" width="1" x="5" y="8"/>
<rect fill="hsl(162,80%,50%)" height="1" width="1" x="6" y="8"/>
<rect fill="hsl(36,80%,50%)" height="1" width="1" x="7" y="8"/>
<rect fill="hsl(85,80%,50%)" height="1" width="1" x="8" y="8"/>
<rect fill="hsl(134,80%,50%)" height="1" width="1" x="9" y="8"/>
<rect fill="hsl(183,80%,50%)" height="1" width="1" x="0" y="9"/>
<rect fill="hsl(232,80%,50%)" height="1" width="1" x="1" y="9"/>
<rect fill="hsl(281,80%,50%)" height="1" width="1" x="2" y="9"/>
<rect fill="hsl(330,80%,50%)" height="1" width="1" x="3" y="9"/>
<rect fill="hsl(19,80%,50%)" height="1" width="1" x="4" y="9"/>
<rect fill="hsl(68,80%,50%)" height="1" width="1" x="5" y="9"/>
<rect fill="hsl(118,80%,50%)" height="1" width="1" x="6" y="9"/>
<rect fill="hsl(167,80%,50%)" height="1" width="1" x="7" y="9"/>
<rect fill="hsl(40,80%,50%)" height="1" width="1" x="8" y="9"/>
<rect fill="hsl(89,80%,50%)" height="1" width="1" x="9" y="9"/>
</svg>