<svg viewBox="0 0 10 10" xmlns="http://www.w3.org/2000/svg">
<style>
line { stroke: black; stroke-width: 2; }

</style>
<rect fill="hsl(16,80%,50%)" height="1" width="1" x="0" y="0"/>
<rect fill="hsl(31,80%,50%)" height="1" width="1" x="1" y="0"/>
<rect fill="hsl(47,80%,50%)" height="1" width="1" x="2" y="0"/>
<rect fill="hsl(63,80%,50%)" height="1" width="1" x="3" y="0"/>
<rect fill="hsl(78,80%,50%)" height="1" width="1" x="4" y="0"/>
<rect fill="hsl(94,80%,50%)" height="1" width="1" x="5" y="0"/>
<rect fill="hsl(110,80%,50%)" height="1" width="1" x="6" y="0"/>
<rect fill="hsl(125,80%,50%)" height="1" width="1" x="7" y="0"/>
<rect fill="hsl(141,80%,50%)" height="1" width="1" x="8" y="0"/>
<rect fill="hsl(157,80%,50%)" height="1" width="1" x="9" y="0"/>
<rect fill="hsl(172,80%,50%)" height="1" width="1" x="0" y="1"/>
<rect fill="hsl(188,80%,50%)" height="1" width="1" x="1" y="1"/>
<rect fill="hsl(203,80%,50%)" height="1" width="1" x="2" y="1"/>
<rect fill="hsl(219,80%,50%)" height="1" width="1" x="3" y="1"/>
<rect fill="hsl(235,80%,50%)" height="1" width="1" x="4" y="1"/>
<rect fill="hsl(250,80%,50%)" height="1" width="1" x="5" y="1"/>
<rect fill="hsl(266,80%,50%)" height="1" width="1" x="6" y="1"/>
<rect fill="hsl(282,80%,50%)" height="1" width="1" x="7" y="1"/>
<rect fill="hsl(297,80%,50%)" height="1" width="1" x="8" y="1"/>
<rect fill="hsl(313,80%,50%)" height="1" width="1" x="9" y="1"/>
<rect fill="hsl(329,80%,50%)" height="1" width="1" x="0" y="2"/>
<rect fill="hsl(344,80%,50%)" height="1" width="1" x="1" y="2"/>
<rect fill="hsl(1,80%,50%)" height="1" width="1" x="2" y="2"/>
<rect fill="hsl(16,80%,50%)" height="1" width="1" x="3" y="2"/>
<rect fill="hsl(32,80%,50%)" height="1" width="1" x="4" y="2"/>
<rect fill="hsl(48,80%,50%)" height="1" width="1" x="5" y="2"/>
<rect fill="hsl(63,80%,50%)" height="1" width="1" x="6" y="2"/>
<rect fill="hsl(79,80%,50%)" height="1" width="1" x="7" y="2"/>
<rect fill="hsl(95,80%,50%)" height="1" width="1" x="8" y="2"/>
<rect fill="hsl(110,80%,50%)" height="1" width="1" x="9" y="2"/>
<rect fill="hsl(126,80%,50%)" height="1" width="1" x="0" y="3"/>
<rect fill="hsl(142,80%,50%)" height="1" width="1" x="1" y="3"/>
<rect fill="hsl(157,80%,50%)" height="1" width="1" x="2" y="3"/>
<rect fill="hsl(173,80%,50%)" height="1" width="1" x="3" y="3"/>
<rect fill="hsl(189,80%,50%)" height="1" width="1" x="4" y="3"/>
<rect fill="hsl(204,80%,50%)" height="1" width="1" x="5" y="3"/>
<rect fill="hsl(220,80%,50%)" height="1" width="1" x="6" y="3"/>
<rect fill="hsl(235,80%,50%)" height="1" width="1" x="7" y="3"/>
<rect fill="hsl(251,80%,50%)" height="1" width="1" x="8" y="3"/>
<rect fill="hsl(267,80%,50%)" height="1" width="1" x="9" y="3"/>
<rect fill="hsl(282,80%,50%)" height="1" width="1" x="0" y="4"/>
<rect fill="hsl(298,80%,50%)" height="1" width="1" x="1" y="4"/>
<rect fill="hsl(314,80%,50%)" height="1" width="1" x="2" y="4"/>
<rect fill="hsl(329,80%,50%)" height="1" width="1" x="3" y="4"/>
<rect fill="hsl(345,80%,50%)" height="1" width="1" x="4" y="4"/>
<rect fill="hsl(1,80%,50%)" height="1" width="1" x="5" y="4"/>
<rect fill="hsl(17,80%,50%)" height="1" width="1" x="6" y="4"/>
<rect fill="hsl(33,80%,50%)" height="1" width="1" x="7" y="4"/>
<rect fill="hsl(48,80%,50%)" height="1" width="1" x="8" y="4"/>
<rect fill="hsl(64,80%,50%)" height="1" width="1" x="9" y="4"/>
<rect fill="hsl(80,80%,50%)" height="1" width="1" x="0" y="5"/>
<rect fill="hsl(95,80%,50%)" height="1" width="1" x="1" y="5"/>
<rect fill="hsl(111,80%,50%)" height="1" width="1" x="2" y="5"/>
<rect fill="hsl(127,80%,50%)" height="1" width="1" x="3" y="5"/>
<rect fill="hsl(142,80%,50%)" height="1" width="1" x="4" y="5"/>
<rect fill="hsl(158,80%,50%)" height="1" width="1" x="5" y="5"/>
<rect fill="hsl(174,80%,50%)" height="1" width="1" x="6" y="5"/>
<rect fill="hsl(189,80%,50%)" height="1" width="1" x="7" y="5"/>
<rect fill="hsl(205,80%,50%)" height="1" width="1" x="8" y="5"/>
<rect fill="hsl(220,80%,50%)" height="1" width="1" x="9" y="5"/>
<rect fill="hsl(236,80%,50%)" height="1" width="1" x="0" y="6"/>
<rect fill="hsl(252,80%,50%)" height="1" width="1" x="1" y="6"/>
<rect fill="hsl(267,80%,50%)" height="1" width="1" x="2" y="6"/>
<rect fill="hsl(283,80%,50%)" height="1" width="1" x="3" y="6"/>
<rect fill="hsl(299,80%,50%)" height="1" width="1" x="4" y="6"/>
<rect fill="hsl(314,80%,50%)" height="1" width="1" x="5" y="6"/>
<rect fill="hsl(330,80%,50%)" height="1" width="1" x="6" y="6"/>
<rect fill="hsl(346,80%,50%)" height="1" width="1" x="7" y="6"/>
<rect fill="hsl(2,80%,50%)" height="1" width="1" x="8" y="6"/>
<rect fill="hsl(18,80%,50%)" height="1" width="1" x="9" y="6"/>
<rect fill="hsl(33,80%,50%)" height="1" width="1" x="0" y="7"/>
<rect fill="hsl(49,80%,50%)" height="1" width="1" x="1" y="7"/>
<rect fill="hsl(65,80%,50%)" height="1" width="1" x="2" y="7"/>
<rect fill="hsl(80,80%,50%)" height="1" width="1" x="3" y="7"/>
<rect fill="hsl(96,80%,50%)" height="1" width="1" x="4" y="7"/>
<rect fill="hsl(112,80%,50%)" height="1" width="1" x="5" y="7"/>
<rect fill="hsl(127,80%,50%)" height="1" width="1" x="6" y="7"/>
<rect fill="hsl(143,80%,50%)" height="1" width="1" x="7" y="7"/>
<rect fill="hsl(159,80%,50%)" height="1" width="1" x="8" y="7"/>
<rect fill="hsl(174,80%,50%)" height="1" width="1" x="9" y="7"/>
<rect fill="hsl(190,80%,50%)" height="1" width="1" x="0" y="8"/>
<rect fill="hsl(206,80%,50%)" height="1" width="1" x="1" y="8"/>
<rect fill="hsl(221,80%,50%)" height="1" width="1" x="2" y="8"/>
<rect fill="hsl(237,80%,50%)" height="1" width="1" x="3" y="8"/>
<rect fill="hsl(252,80%,50%)" height="1" width="1" x="4" y="8"/>
<rect fill="hsl(268,80%,50%)" height="1" width="1" x="5" y="8"/>
<rect fill="hsl(284,80%,50%)" height="1" width="1" x="6" y="8"/>
<rect fill="hsl(299,80%,50%)" height="1" width="1" x="7" y="8"/>
<rect fill="hsl(315,80%,50%)" height="1" width="1" x="8" y="8"/>
<rect fill="hsl(331,80%,50%)" height="1" width="1" x="9" y="8"/>
<rect fill="hsl(346,80%,50%)" height="1" width="1" x="0" y="9"/>
<rect fill="hsl(3,80%,50%)" height="1" width="1" x="1" y="9"/>
<rect fill="hsl(18,80%,50%)" height="1" width="1" x="2" y="9"/>
<rect fill="hsl(34,80%,50%)" height="1" width="1" x="3" y="9"/>
<rect fill="hsl(50,80%,50%)" height="1" width="1" x="4" y="9"/>
<rect fill="hsl(65,80%,50%)" height="1" width="1" x="5" y="9"/>
<rect fill="hsl(81,80%,50%)" height="1" width="1" x="6" y="9"/>
<rect fill="hsl(97,80%,50%)" height="1" width="1" x="7" y="9"/>
<rect fill="hsl(112,80%,50%)" height="1" width="1" x="8" y="9"/>
<rect fill="hsl(128,80%,50%)" height="1" width="1" x="9" y="9"/>
</svg>