<svg viewBox="0 0 10 10" xmlns="http://www.w3.org/2000/svg">
<style>
line { stroke: black; stroke-width: 2; }

</style>
<rect fill="hsl(23,80%,50%)" height="1" width="1" x="0" y="0"/>
<rect fill="hsl(47,80%,50%)" height="1" width="1" x="1" y="0"/>
<rect fill="hsl(70,80%,50%)" height="1" width="1" x="2" y="0"/>
<rect fill="hsl(94,80%,50%)" height="1" width="1" x="3" y="0"/>
<rect fill="hsl(117,80%,50%)" height="1" width="1" x="4" y="0"/>
<rect fill="hsl(141,80%,50%)" height="1" width="1" x="5" y="0"/>
<rect fill="hsl(164,80%,50%)" height="1" width="1" x="6" y="0"/>
<rect fill="hsl(188,80%,50%)" height="1" width="1" x="7" y="0"/>
<rect fill="hsl(211,80%,50%)" height="1" width="1" x="8" y="0"/>
<rect fill="hsl(235,80%,50%)" height="1" width="1" x="9" y="0"/>
<rect fill="hsl(258,80%,50%)" height="1" width="1" x="0" y="1"/>
<rect fill="hsl(282,80%,50%)" height="1" width="1" x="1" y="1"/>
<rect fill="hsl(305,80%,50%)" height="1" width="1" x="2" y="1"/>
<rect fill="hsl(329,80%,50%)" height="1" width="1" x="3" y="1"/>
<rect fill="hsl(352,80%,50%)" height="1" width="1" x="4" y="1"/>
<rect fill="hsl(16,80%,50%)" height="1" width="1" x="5" y="1"/>
<rect fill="hsl(39,80%,50%)" height="1" width="1" x="6" y="1"/>
<rect fill="hsl(63,80%,50%)" height="1" width="1" x="7" y="1"/>
<rect fill="hsl(86,80%,50%)" height="1" width="1" x="8" y="1"/>
<rect fill="hsl(110,80%,50%)" height="1" width="1" x="9" y="1"/>
<rect fill="hsl(133,80%,50%)" height="1" width="1" x="0" y="2"/>
<rect fill="hsl(157,80%,50%)" height="1" width="1" x="1" y="2"/>
<rect fill="hsl(1,80%,50%)" height="1" width="1" x="2" y="2"/>
<rect fill="hsl(24,80%,50%)" height="1" width="1" x="3" y="2"/>
<rect fill="hsl(48,80%,50%)" height="1" width="1" x="4" y="2"/>
<rect fill="hsl(71,80%,50%)" height="1" width="1" x="5" y="2"/>
<rect fill="hsl(95,80%,50%)" height="1" width="1" x="6" y="2"/>
<rect fill="hsl(118,80%,50%)" height="1" width="1" x="7" y="2"/>
<rect fill="hsl(142,80%,50%)" height="1" width="1" x="8" y="2"/>
<rect fill="hsl(165,80%,50%)" height="1" width="1" x="9" y="2"/>
<rect fill="hsl(189,80%,50%)" height="1" width="1" x="0" y="3"/>
<rect fill="hsl(212,80%,50%)" height="1" width="1" x="1" y="3"/>
<rect fill="hsl(236,80%,50%)" height="1" width="1" x="2" y="3"/>
<rect fill="hsl(259,80%,50%)" height="1" width="1" x="3" y="3"/>
<rect fill="hsl(283,80%,50%)" height="1" width="1" x="4" y="3"/>
<rect fill="hsl(306,80%,50%)" height="1" width="1" x="5" y="3"/>
<rect fill="hsl(330,80%,50%)" height="1" width="1" x="6" y="3"/>
<rect fill="hsl(353,80%,50%)" height="1" width="1" x="7" y="3"/>
<rect fill="hsl(17,80%,50%)" height="1" width="1" x="8" y="3"/>
<rect fill="hsl(40,80%,50%)" height="1" width="1" x="9" y="3"/>
<rect fill="hsl(64,80%,50%)" height="1" width="1" x="0" y="4"/>
<rect fill="hsl(87,80%,50%)" height="1" width="1" x="1" y="4"/>
<rect fill="hsl(111,80%,50%)" height="1" width="1" x="2" y="4"/>
<rect fill="hsl(134,80%,50%)" height="1" width="1" x="3" y="4"/>
<rect fill="hsl(158,80%,50%)" height="1" width="1" x="4" y="4"/>
<rect fill="hsl(2,80%,50%)" height="1" width="1" x="5" y="4"/>
<rect fill="hsl(26,80%,50%)" height="1" width="1" x="6" y="4"/>
<rect fill="hsl(49,80%,50%)" height="1" width="1" x="7" y="4"/>
<rect fill="hsl(72,80%,50%)" height="1" width="1" x="8" y="4"/>
<rect fill="hsl(96,80%,50%)" height="1" width="1" x="9" y="4"/>
<rect fill="hsl(119,80%,50%)" height="1" width="1" x="0" y="5"/>
<rect fill="hsl(143,80%,50%)" height="1" width="1" x="1" y="5"/>
<rect fill="hsl(166,80%,50%)" height="1" width="1" x="2" y="5"/>
<rect fill="hsl(190,80%,50%)" height="1" width="1" x="3" y="5"/>
<rect fill="hsl(213,80%,50%)" height="1" width="1" x="4" y="5"/>
<rect fill="hsl(237,80%,50%)" height="1" width="1" x="5" y="5"/>
<rect fill="hsl(260,80%,50%)" height="1" width="1" x="6" y="5"/>
<rect fill="hsl(284,80%,50%)" height="1" width="1" x="7" y="5"/>
<rect fill="hsl(307,80%,50%)" height="1" width="1" x="8" y="5"/>
<rect fill="hsl(331,80%,50%)" height="1" width="1" x="9" y="5"/>
<rect fill="hsl(354,80%,50%)" height="1" width="1" x="0" y="6"/>
<rect fill="hsl(18,80%,50%)" height="1" width="1" x="1" y="6"/>
<rect fill="hsl(41,80%,50%)" height="1" width="1" x="2" y="6"/>
<rect fill="hsl(65,80%,50%)" height="1" width="1" x="3" y="6"/>
<rect fill="hsl(88,80%,50%)" height="1" width="1" x="4" y="6"/>
<rect fill="hsl(112,80%,50%)" height="1" width="1" x="5" y="6"/>
<rect fill="hsl(135,80%,50%)" height="1" width="1" x="6" y="6"/>
<rect fill="hsl(159,80%,50%)" height="1" width="1" x="7" y="6"/>
<rect fill="hsl(3,80%,50%)" height="1" width="1" x="8" y="6"/>
<rect fill="hsl(27,80%,50%)" height="1" width="1" x="9" y="6"/>
<rect fill="hsl(50,80%,50%)" height="1" width="1" x="0" y="7"/>
<rect fill="hsl(73,80%,50%)" height="1" width="1" x="1" y="7"/>
<rect fill="hsl(97,80%,50%)" height="1" width="1" x="2" y="7"/>
<rect fill="hsl(120,80%,50%)" height="1" width="1" x="3" y="7"/>
<rect fill="hsl(144,80%,50%)" height="1" width="1" x="4" y="7"/>
<rect fill="hsl(167,80%,50%)" height="1" width="1" x="5" y="7"/>
<rect fill="hsl(191,80%,50%)" height="1" width="1" x="6" y="7"/>
<rect fill="hsl(214,80%,50%)" height="1" width="1" x="7" y="7"/>
<rect fill="hsl(238,80%,50%)" height="1" width="1" x="8" y="7"/>
<rect fill="hsl(261,80%,50%)" height="1" width="1" x="9" y="7"/>
<rect fill="hsl(285,80%,50%)" height="1" width="1" x="0" y="8"/>
<rect fill="hsl(308,80%,50%)" height="1" width="1" x="1" y="8"/>
<rect fill="hsl(332,80%,50%)" height="1" width="1" x="2" y="8"/>
<rect fill="hsl(355,80%,50%)" height="1" width="1" x="3" y="8"/>
<rect fill="hsl(19,80%,50%)" height="1" width="1" x="4" y="8"/>
<rect fill="hsl(42,80%,50%)" height="1" width="1" x="5" y="8"/>
<rect fill="hsl(66,80%,50%)" height="1" width="1" x="6" y="8"/>
<rect fill="hsl(89,80%,50%)" height="1" width="1" x="7" y="8"/>
<rect fill="hsl(113,80%,50%)" height="1" width="1" x="8" y="8"/>
<rect fill="hsl(136,80%,50%)" height="1" width="1" x="9" y="8"/>
<rect fill="hsl(160,80%,50%)" height="1" width="1" x="0" y="9"/>
<rect fill="hsl(4,80%,50%)" height="1" width="1" x="1" y="9"/>
<rect fill="hsl(28,80%,50%)" height="1" width="1" x="2" y="9"/>
<rect fill="hsl(51,80%,50%)" height="1" width="1" x="3" y="9"/>
<rect fill="hsl(75,80%,50%)" height="1" width="1" x="4" y="9"/>
<rect fill="hsl(98,80%,50%)" height="1" width="1" x="5" y="9"/>
<rect fill="hsl(121,80%,50%)" height="1" width="1" x="6" y="9"/>
<rect fill="hsl(145,80%,50%)" height="1" width="1" x="7" y="9"/>
<rect fill="hsl(168,80%,50%)" height="1" width="1" x="8" y="9"/>
<rect fill="hsl(192,80%,50%)" height="1" width="1" x="9" y="9"/>
</svg>